<?xml version="1.0" standalone="no"?>
  <!DOCTYPE svg PUBLIC "-//W3C//DTD SVG 1.1//EN" "http://www.w3.org/Graphics/SVG/1.1/DTD/svg11.dtd" >
  <svg>
  <metadata>
  Created by font-carrier
  </metadata>
  <defs>
  <font id="ExcentraPro-Light" horiz-adv-x="1203" vert-adv-y="1203" >
    <font-face
      
      font-family="Excentra Pro Lt"
      
      font-weight="400"
      
      font-stretch="normal"
      
      units-per-em="1000"
      
      ascent="750"
      
      descent="-250"
      
    />
      <missing-glyph />

      

      
      <glyph glyph-name="uni21" unicode="&#x21;" d="M104.50 6Q104.50 6 98.25 12Q92 18 92 36Q92 54 104.50 66.50Q117 79 135 79Q152 79 164.50 66.50Q177 54 177 36Q177 18 164.50 6Q152-6 135-6Q117-6 104.50 6M109 201L100 471L100 700L169 700L169 471L160 201L109 201Z"  horiz-adv-x="269" vert-adv-y="1000"  />

      
      <glyph glyph-name="uni22" unicode="&#x22;" d="M89 469L80 700L146 700L137 469L89 469M231 469L222 700L288 700L279 469L231 469Z"  horiz-adv-x="368" vert-adv-y="1000"  />

      
      <glyph glyph-name="uni23" unicode="&#x23;" d="M388 0L415 188L217 188L190 0L139 0L166 188L39 188L39 229L172 229L206 471L80 471L80 512L212 512L239 700L290 700L263 512L461 512L488 700L540 700L513 512L640 512L640 471L507 471L473 229L599 229L599 188L467 188L440 0L388 0M257 471L223 229L421 229L455 471L257 471Z"  horiz-adv-x="679" vert-adv-y="1000"  />

      
      <glyph glyph-name="uni24" unicode="&#x24;" d="M438 160Q438 208 400.50 239Q363 270 263 320Q156 374 111.50 418Q67 462 67 532Q67 610 118 655Q169 700 260 705L260 800L302 800L302 705Q354 702 395.50 686.50Q437 671 453 657L469 643L469 576Q466 579 461.50 584Q457 589 439 602.50Q421 616 400.50 626Q380 636 346 644Q312 652 275 652Q204 652 168 623.50Q132 595 132 545Q132 497 168 466Q204 435 299 388Q408 334 455 288.50Q502 243 502 175Q502 100 450.50 50Q399 0 302-5L302-100L260-100L260-5Q203-3 154 15Q105 33 84 50L64 66L64 135Q68 131 74.50 125.50Q81 120 103.50 105Q126 90 150.50 78.50Q175 67 212.50 57.50Q250 48 289 48Q361 48 399.50 78.50Q438 109 438 160Z"  horiz-adv-x="571" vert-adv-y="1000"  />

      
      <glyph glyph-name="uni25" unicode="&#x25;" d="M170-10L619 731L656 710L207-31L170-10M52 523Q52 601 97.50 653.50Q143 706 208 706Q272 706 315 655Q358 604 358 527Q358 449 313 396.50Q268 344 202 344Q138 344 95 395Q52 446 52 523M104 529Q104 465 133.50 422.50Q163 380 207 380Q250 380 278.50 419.50Q307 459 307 521Q307 584 277 627Q247 670 203 670Q160 670 132 630.50Q104 591 104 529M468 173Q468 251 513 303.50Q558 356 624 356Q688 356 731 305Q774 254 774 177Q774 99 728.50 46.50Q683-6 618-6Q554-6 511 45Q468 96 468 173M519 180Q519 116 548.50 73Q578 30 622 30Q665 30 693.50 69.50Q722 109 722 170Q722 234 692.50 277Q663 320 619 320Q576 320 547.50 280.50Q519 241 519 180Z"  horiz-adv-x="826" vert-adv-y="1000"  />

      
      <glyph glyph-name="uni26" unicode="&#x26;" d="M503 385L564 385Q580 357 580 301Q580 196 512 108Q627 6 689 6L689-42Q606-42 472 67Q387-6 264-6Q164-6 106.50 41.50Q49 89 49 176Q49 249 88 297Q127 345 196 385Q145 477 145 545Q145 611 194.50 658.50Q244 706 330 706Q408 706 447.50 667.50Q487 629 487 576Q487 558 481.50 541Q476 524 469 511Q462 498 446.50 483.50Q431 469 421 460.50Q411 452 387.50 438Q364 424 353.50 418.50Q343 413 315 398.50Q287 384 278 379Q357 255 474 143Q517 206 517 296Q517 321 513.50 343.50Q510 366 506 376L503 385M290 45Q375 45 435 97Q307 209 221 345Q119 280 119 191Q119 122 167.50 83.50Q216 45 290 45M209 552Q209 498 255 417Q300 439 318.50 449.50Q337 460 366.50 480Q396 500 407.50 520.50Q419 541 419 566Q419 602 394 628.50Q369 655 320 655Q267 655 238 624.50Q209 594 209 552Z"  horiz-adv-x="704" vert-adv-y="1000"  />

      
      <glyph glyph-name="uni27" unicode="&#x27;" d="M89 469L80 700L146 700L137 469L89 469Z"  horiz-adv-x="226" vert-adv-y="1000"  />

      
      <glyph glyph-name="uni28" unicode="&#x28;" d="M304-177L284-206Q275-200 260.50-188Q246-176 209-133Q172-90 143.50-40Q115 10 91.50 94Q68 178 68 271Q68 364 90 448Q112 532 144 586Q176 640 208 680Q240 720 262 738L284 756L304 727Q297 721 286 709Q275 697 246 655.50Q217 614 195 566Q173 518 155 440.50Q137 363 137 280Q137 197 154 119Q171 41 195.50-10.50Q220-62 245-101.50Q270-141 287-159L304-177Z"  horiz-adv-x="336" vert-adv-y="1000"  />

      
      <glyph glyph-name="uni29" unicode="&#x29;" d="M32 727L53 756Q62 750 76.50 738Q91 726 128 683Q165 640 193.50 590Q222 540 245.50 456Q269 372 269 279Q269 186 247 102Q225 18 193-36Q161-90 129-130Q97-170 75-188L53-206L32-177Q39-171 50-159Q61-147 90-105.50Q119-64 141-16Q163 32 181 109.50Q199 187 199 270Q199 353 182 431Q165 509 140.50 560.50Q116 612 91 651.50Q66 691 49 709L32 727Z"  horiz-adv-x="336" vert-adv-y="1000"  />

      
      <glyph glyph-name="uni2a" unicode="&#x2a;" d="M360 447L238 520L241 378L193 378L196 520L75 447L51 488L174 556L51 625L75 666L196 593L193 734L241 734L238 593L360 666L384 625L260 556L384 488L360 447Z"  horiz-adv-x="435" vert-adv-y="1000"  />

      
      <glyph glyph-name="uni2b" unicode="&#x2b;" d="M94 329L94 371L258 371L258 535L299 535L299 371L463 371L463 329L299 329L299 165L258 165L258 329L94 329Z"  horiz-adv-x="557" vert-adv-y="1000"  />

      
      <glyph glyph-name="uni2c" unicode="&#x2c;" d="M48-115L48-87Q50-86 53.50-84.50Q57-83 65.50-76Q74-69 81-60.50Q88-52 94.50-36.50Q101-21 103-3Q67 0 67 35Q67 53 78.50 65Q90 77 110 77Q152 77 152 21Q152-8 141.50-33Q131-58 115.50-72.50Q100-87 84.50-97Q69-107 58-111L48-115Z"  horiz-adv-x="219" vert-adv-y="1000"  />

      
      <glyph glyph-name="uni2d" unicode="&#x2d;" d="M59 269L59 311L288 311L288 269L59 269Z"  horiz-adv-x="347" vert-adv-y="1000"  />

      
      <glyph glyph-name="uni2e" unicode="&#x2e;" d="M79.50 6Q79.50 6 73.25 12Q67 18 67 36Q67 54 79.50 66.50Q92 79 109 79Q127 79 139.50 66.50Q152 54 152 36Q152 18 139.50 6Q127-6 109-6Q92-6 79.50 6Z"  horiz-adv-x="219" vert-adv-y="1000"  />

      
      <glyph glyph-name="uni2f" unicode="&#x2f;" d="M0-144L422 762L460 744L38-162L0-144Z"  horiz-adv-x="460" vert-adv-y="1000"  />

      
      <glyph glyph-name="uni30" unicode="&#x30;" d="M59 345Q59 499 136.50 602.50Q214 706 327 706Q438 706 511 605.50Q584 505 584 355Q584 201 506.50 97.50Q429-6 317-6Q206-6 132.50 94.50Q59 195 59 345M133 360Q133 226 188 135.50Q243 45 325 45Q405 45 457.50 128.50Q510 212 510 340Q510 474 455 564.50Q400 655 318 655Q238 655 185.50 571.50Q133 488 133 360Z"  horiz-adv-x="643" vert-adv-y="1000"  />

      
      <glyph glyph-name="uni31" unicode="&#x31;" d="M68 597L68 660L298 706L298 0L225 0L225 641L68 597Z"  horiz-adv-x="427" vert-adv-y="1000"  />

      
      <glyph glyph-name="uni32" unicode="&#x32;" d="M497 62L497 0L48 0L48 33Q63 45 87.50 66Q112 87 175 147Q238 207 286.50 262.50Q335 318 374.50 387Q414 456 414 507Q414 567 366 608Q318 649 241 649Q197 649 153 635Q109 621 87 607L65 593L65 639Q68 642 73.50 646.50Q79 651 98.50 662.50Q118 674 139.50 683Q161 692 194.50 699Q228 706 264 706Q369 706 429.50 651.50Q490 597 490 521Q490 461 450 388.50Q410 316 346.50 249Q283 182 234 138Q185 94 138 57L497 62Z"  horiz-adv-x="554" vert-adv-y="1000"  />

      
      <glyph glyph-name="uni33" unicode="&#x33;" d="M70 640L70 700L459 700L459 679L235 411Q252 414 272 414Q372 414 434.50 362Q497 310 497 221Q497 127 426 60.50Q355-6 225-6Q173-6 128.50 5Q84 16 66 28L48 39L48 97Q57 91 73.50 82.50Q90 74 138 59.50Q186 45 232 45Q319 45 374 89.50Q429 134 429 211Q429 282 380.50 322.50Q332 363 244 363Q220 363 199 360Q178 357 168 354L159 351L148 381L365 646L70 640Z"  horiz-adv-x="559" vert-adv-y="1000"  />

      
      <glyph glyph-name="uni34" unicode="&#x34;" d="M31 184L31 205L376 700L436 700L436 232L539 234L539 184L436 184L436 0L363 0L363 184L31 184M101 228L366 231L366 609L101 228Z"  horiz-adv-x="576" vert-adv-y="1000"  />

      
      <glyph glyph-name="uni35" unicode="&#x35;" d="M243 374Q212 374 179 369Q146 364 129 358L112 353L85 385L122 700L456 700L456 640L172 647L144 407Q208 425 266 425Q375 425 438.50 372.50Q502 320 502 228Q502 130 431 62Q360-6 229-6Q177-6 133 5Q89 16 71 28L53 39L53 97Q62 91 78.50 82.50Q95 74 143 59.50Q191 45 236 45Q323 45 378.50 91.50Q434 138 434 216Q434 290 384 332Q334 374 243 374Z"  horiz-adv-x="559" vert-adv-y="1000"  />

      
      <glyph glyph-name="uni36" unicode="&#x36;" d="M66 271Q66 350 86.50 416Q107 482 139.50 525.50Q172 569 211.50 603.50Q251 638 291 656.50Q331 675 363.50 687Q396 699 416 702L437 706L467 663Q461 662 450 659.50Q439 657 408 646.50Q377 636 348 622Q319 608 283 582Q247 556 219.50 524.50Q192 493 170 445.50Q148 398 142 343Q167 389 214.50 416Q262 443 318 443Q421 443 488.50 380Q556 317 556 222Q556 124 483.50 59Q411-6 300-6Q195-6 130.50 61Q66 128 66 271M143 223Q143 147 190.50 96Q238 45 309 45Q385 45 434 92.50Q483 140 483 214Q483 290 432.50 341Q382 392 307 392Q237 392 190 344Q143 296 143 223Z"  horiz-adv-x="610" vert-adv-y="1000"  />

      
      <glyph glyph-name="uni37" unicode="&#x37;" d="M40 638L40 700L512 700L512 679L229 0L149 0L442 643L40 638Z"  horiz-adv-x="555" vert-adv-y="1000"  />

      
      <glyph glyph-name="uni38" unicode="&#x38;" d="M56 174Q56 214 72 248Q88 282 114.50 304Q141 326 163 339Q185 352 208 361Q150 393 117.50 433Q85 473 85 530Q85 606 144 656Q203 706 304 706Q400 706 452.50 660.50Q505 615 505 545Q505 508 490 474.50Q475 441 450.50 417Q426 393 407 379.50Q388 366 368 355Q445 319 487.50 279Q530 239 530 178Q530 103 465.50 48.50Q401-6 285-6Q174-6 115 45.50Q56 97 56 174M464 167Q464 184 458.50 199.50Q453 215 439.50 229Q426 243 414.50 253Q403 263 379 276Q355 289 342 295.50Q329 302 298.50 316Q268 330 256 336Q237 328 219 318Q201 308 178 289.50Q155 271 140.50 243.50Q126 216 126 184Q126 124 173.50 84.50Q221 45 299 45Q374 45 419 81Q464 117 464 167M149 540Q149 511 162 487Q175 463 203 442.50Q231 422 254.50 409Q278 396 320 377Q437 442 437 536Q437 588 398.50 621.50Q360 655 293 655Q226 655 187.50 622.50Q149 590 149 540Z"  horiz-adv-x="587" vert-adv-y="1000"  />

      
      <glyph glyph-name="uni39" unicode="&#x39;" d="M541 429Q541 362 526.50 304Q512 246 488 205Q464 164 432.50 130.50Q401 97 366.50 75.50Q332 54 297.50 38Q263 22 231.50 14Q200 6 176 1Q152-4 138-5L123-6L100 43Q107 43 119.50 44.50Q132 46 167.50 54Q203 62 236 74.50Q269 87 310 111.50Q351 136 382 168Q413 200 436.50 250Q460 300 465 361Q440 315 395 289.50Q350 264 295 264Q193 264 127 326Q61 388 61 483Q61 580 132.50 643Q204 706 312 706Q415 706 478 639.50Q541 573 541 429M464 481Q464 555 417.50 605Q371 655 303 655Q229 655 181.50 608.50Q134 562 134 489Q134 415 183 365Q232 315 305 315Q373 315 418.50 362Q464 409 464 481Z"  horiz-adv-x="607" vert-adv-y="1000"  />

      
      <glyph glyph-name="uni3a" unicode="&#x3a;" d="M79.50 6Q79.50 6 73.25 12Q67 18 67 36Q67 54 79.50 66.50Q92 79 109 79Q127 79 139.50 66.50Q152 54 152 36Q152 18 139.50 6Q127-6 109-6Q92-6 79.50 6M79.50 413.50Q79.50 413.50 73.25 419.75Q67 426 67 444Q67 462 79.50 474Q92 486 109 486Q127 486 139.50 474Q152 462 152 444Q152 426 139.50 413.50Q127 401 109 401Q92 401 79.50 413.50Z"  horiz-adv-x="219" vert-adv-y="1000"  />

      
      <glyph glyph-name="uni3b" unicode="&#x3b;" d="M79.50 413.50Q79.50 413.50 73.25 419.75Q67 426 67 444Q67 462 79.50 474Q92 486 109 486Q127 486 139.50 474Q152 462 152 444Q152 426 139.50 413.50Q127 401 109 401Q92 401 79.50 413.50M48-115L48-87Q50-86 53.50-84.50Q57-83 65.50-76Q74-69 81-60.50Q88-52 94.50-36.50Q101-21 103-3Q67 0 67 35Q67 53 78.50 65Q90 77 110 77Q152 77 152 21Q152-8 141.50-33Q131-58 115.50-72.50Q100-87 84.50-97Q69-107 58-111L48-115Z"  horiz-adv-x="219" vert-adv-y="1000"  />

      
      <glyph glyph-name="uni3c" unicode="&#x3c;" d="M463 209L463 164L69 334L69 368L463 537L463 492L137 351L463 209Z"  horiz-adv-x="557" vert-adv-y="1000"  />

      
      <glyph glyph-name="uni3d" unicode="&#x3d;" d="M94 429L94 471L463 471L463 429L94 429M94 229L94 271L463 271L463 229L94 229Z"  horiz-adv-x="557" vert-adv-y="1000"  />

      
      <glyph glyph-name="uni3e" unicode="&#x3e;" d="M94 492L94 537L488 367L488 333L94 164L94 208L420 350L94 492Z"  horiz-adv-x="557" vert-adv-y="1000"  />

      
      <glyph glyph-name="uni3f" unicode="&#x3f;" d="M203 201L196 351Q203 353 214.50 356Q226 359 255 372Q284 385 306 402Q328 419 346.50 449Q365 479 365 515Q365 573 321.50 611Q278 649 204 649Q160 649 118 635Q76 621 56 607L36 593L36 639Q39 642 44 646.50Q49 651 67 662.50Q85 674 105.50 683Q126 692 159.50 699Q193 706 229 706Q328 706 384 655.50Q440 605 440 525Q440 480 421.50 442Q403 404 376.50 381.50Q350 359 323 343.50Q296 328 278 322L259 316L255 201L203 201M198.50 6Q198.50 6 192.25 12Q186 18 186 36Q186 54 198.50 66.50Q211 79 229 79Q247 79 259.50 66.50Q272 54 272 36Q272 18 259.50 6Q247-6 229-6Q211-6 198.50 6Z"  horiz-adv-x="488" vert-adv-y="1000"  />

      
      <glyph glyph-name="uni40" unicode="&#x40;" d="M51 228Q51 339 124.50 412.50Q198 486 306 486Q412 486 467 415L499 485L519 485L519 106Q519 79 537 62Q555 45 584 45Q642 45 678 109Q714 173 714 283Q714 466 613 559Q512 652 336 652Q254 652 185.50 632.50Q117 613 90 594L62 574L62 618Q65 622 72 627.50Q79 633 104.50 648.50Q130 664 160.50 675.50Q191 687 243.50 696.50Q296 706 355 706Q557 706 671 603Q785 500 785 309Q785 169 725 81.50Q665-6 561-6Q476-6 454 51Q386-6 283-6Q177-6 114 60.50Q51 127 51 228M447 87L447 331Q439 378 399 406.50Q359 435 303 435Q224 435 175 382Q126 329 126 246Q126 157 177.50 101Q229 45 311 45Q390 45 447 87Z"  horiz-adv-x="846" vert-adv-y="1000"  />

      
      <glyph glyph-name="uni41" unicode="&#x41;" d="M177 192L86 0L31 0L371 705L396 705L741 0L657 0L566 192L177 192M371 601L199 239L543 239L371 601Z"  horiz-adv-x="772" vert-adv-y="1000"  />

      
      <glyph glyph-name="uni42" unicode="&#x42;" d="M101 0L101 700L319 700Q410 700 471 650Q532 600 532 526Q532 474 498 430.50Q464 387 408 363Q479 349 523 301Q567 253 567 190Q567 110 498.50 55Q430 0 332 0L101 0M332 333L177 333L177 46L350 46Q411 46 451.50 85Q492 124 492 182Q492 246 446 289.50Q400 333 332 333M297 654L177 654L177 379L315 379Q376 379 416.50 416.50Q457 454 457 509Q457 570 411 612Q365 654 297 654Z"  horiz-adv-x="617" vert-adv-y="1000"  />

      
      <glyph glyph-name="uni43" unicode="&#x43;" d="M704 437L631 437Q631 532 570 592Q509 652 407 652Q286 652 212 569Q138 486 138 357Q138 219 219.50 136.50Q301 54 441 54Q510 54 572 74.50Q634 95 662 116L690 136L690 91Q686 87 678.50 80.50Q671 74 645 57.50Q619 41 589.50 28Q560 15 512.50 4.50Q465-6 415-6Q253-6 157 91Q61 188 61 339Q61 496 162.50 601Q264 706 419 706Q548 706 626 632Q704 558 704 437Z"  horiz-adv-x="772" vert-adv-y="1000"  />

      
      <glyph glyph-name="uni44" unicode="&#x44;" d="M101 0L101 700L364 700Q512 700 610 602Q708 504 708 359Q708 208 601.50 104Q495 0 342 0L101 0M342 654L177 654L177 46L363 46Q478 46 554.50 128Q631 210 631 334Q631 469 547.50 561.50Q464 654 342 654Z"  horiz-adv-x="769" vert-adv-y="1000"  />

      
      <glyph glyph-name="uni45" unicode="&#x45;" d="M466 334L177 337L177 46L512 51L512 0L101 0L101 700L507 700L507 649L177 653L177 381L466 384L466 334Z"  horiz-adv-x="575" vert-adv-y="1000"  />

      
      <glyph glyph-name="uni46" unicode="&#x46;" d="M463 334L177 337L177 0L101 0L101 700L504 700L504 649L177 653L177 381L463 384L463 334Z"  horiz-adv-x="554" vert-adv-y="1000"  />

      
      <glyph glyph-name="uni47" unicode="&#x47;" d="M697 457L624 457Q624 543 563.50 597.50Q503 652 404 652Q285 652 211.50 569Q138 486 138 358Q138 220 219.50 137Q301 54 443 54Q542 54 632 97L632 301L419 301L428 347L695 347L695 91Q691 87 683.50 80.50Q676 74 649.50 57.50Q623 41 593 28Q563 15 515.50 4.50Q468-6 417-6Q254-6 157.50 91Q61 188 61 340Q61 497 162 601.50Q263 706 417 706Q543 706 620 637.50Q697 569 697 457Z"  horiz-adv-x="786" vert-adv-y="1000"  />

      
      <glyph glyph-name="uni48" unicode="&#x48;" d="M177 336L177 0L101 0L101 700L177 700L177 382L635 382L635 700L710 700L710 0L635 0L635 336L177 336Z"  horiz-adv-x="812" vert-adv-y="1000"  />

      
      <glyph glyph-name="uni49" unicode="&#x49;" d="M101 0L101 700L177 700L177 0L101 0Z"  horiz-adv-x="279" vert-adv-y="1000"  />

      
      <glyph glyph-name="uni4a" unicode="&#x4a;" d="M113-70L113 700L189 700L189-64Q189-145 127-200.50Q65-256-24-256L-24-212Q35-212 74-172Q113-132 113-70Z"  horiz-adv-x="290" vert-adv-y="1000"  />

      
      <glyph glyph-name="uni4b" unicode="&#x4b;" d="M101 700L177 700L177 382L259 393L515 700L582 700L316 382L615 0L528 0L253 348L177 337L177 0L101 0L101 700Z"  horiz-adv-x="651" vert-adv-y="1000"  />

      
      <glyph glyph-name="uni4c" unicode="&#x4c;" d="M101 0L101 700L177 700L177 46L499 51L499 0L101 0Z"  horiz-adv-x="529" vert-adv-y="1000"  />

      
      <glyph glyph-name="uni4d" unicode="&#x4d;" d="M750 0L686 607L446 61L424 61L178 605L120 0L68 0L135 700L212 700L446 180L675 700L747 700L822 0L750 0Z"  horiz-adv-x="888" vert-adv-y="1000"  />

      
      <glyph glyph-name="uni4e" unicode="&#x4e;" d="M101 0L101 705L124 705L656 128L656 700L707 700L707-5L684-5L152 571L152 0L101 0Z"  horiz-adv-x="808" vert-adv-y="1000"  />

      
      <glyph glyph-name="uni4f" unicode="&#x4f;" d="M61 341Q61 494 167 600Q273 706 426 706Q574 706 672.50 606.50Q771 507 771 359Q771 206 664.50 100Q558-6 405-6Q257-6 159 93.50Q61 193 61 341M138 365Q138 231 221 139.50Q304 48 426 48Q541 48 617 129.50Q693 211 693 335Q693 469 609.50 560.50Q526 652 405 652Q290 652 214 570.50Q138 489 138 365Z"  horiz-adv-x="831" vert-adv-y="1000"  />

      
      <glyph glyph-name="uni50" unicode="&#x50;" d="M101 0L101 700L314 700Q405 700 466 645Q527 590 527 509Q527 424 458.50 365Q390 306 292 306L177 306L177 0L101 0M292 654L177 654L177 352L310 352Q371 352 411.50 393Q452 434 452 495Q452 562 406 608Q360 654 292 654Z"  horiz-adv-x="580" vert-adv-y="1000"  />

      
      <glyph glyph-name="uni51" unicode="&#x51;" d="M889-123L863-149Q853-148 836.50-146.50Q820-145 773-134.50Q726-124 683-109Q640-94 587.50-63.50Q535-33 499 6Q448-6 405-6Q257-6 159 93.50Q61 193 61 341Q61 494 167 600Q273 706 426 706Q574 706 672.50 606.50Q771 507 771 359Q771 253 717 166Q663 79 572 33Q630-26 709.50-62.50Q789-99 839-106L889-114L889-123M138 365Q138 232 222 141.50Q306 51 429 51Q544 51 618.50 131Q693 211 693 335Q693 469 609.50 560.50Q526 652 405 652Q290 652 214 570.50Q138 489 138 365Z"  horiz-adv-x="831" vert-adv-y="1000"  />

      
      <glyph glyph-name="uni52" unicode="&#x52;" d="M101 0L101 700L315 700Q406 700 467 645Q528 590 528 509Q528 442 484 389.50Q440 337 370 316Q411 281 461 202Q511 123 540 62L570 0L493 0Q481 27 461.50 69Q442 111 391 194Q340 277 302 306L177 306L177 0L101 0M293 654L177 654L177 352L311 352Q372 352 412.50 393Q453 434 453 495Q453 563 407 608.50Q361 654 293 654Z"  horiz-adv-x="613" vert-adv-y="1000"  />

      
      <glyph glyph-name="uni53" unicode="&#x53;" d="M438 160Q438 208 400.50 239Q363 270 263 320Q156 374 111.50 418Q67 462 67 532Q67 614 123.50 660Q180 706 281 706Q339 706 386 690Q433 674 451 658L469 643L469 576Q466 579 461.50 584Q457 589 439 602.50Q421 616 400.50 626Q380 636 346 644Q312 652 275 652Q204 652 168 623.50Q132 595 132 545Q132 497 168 466Q204 435 299 388Q408 334 455 288.50Q502 243 502 175Q502 95 444.50 44.50Q387-6 278-6Q239-6 202 1.50Q165 9 141 19.50Q117 30 99 40.50Q81 51 72 58L64 66L64 135Q68 131 74.50 125.50Q81 120 103.50 105Q126 90 150.50 78.50Q175 67 212.50 57.50Q250 48 289 48Q361 48 399.50 78.50Q438 109 438 160Z"  horiz-adv-x="571" vert-adv-y="1000"  />

      
      <glyph glyph-name="uni54" unicode="&#x54;" d="M656 700L656 649L381 653L381 0L305 0L305 653L30 649L30 700L656 700Z"  horiz-adv-x="686" vert-adv-y="1000"  />

      
      <glyph glyph-name="uni55" unicode="&#x55;" d="M599 247L599 700L650 700L650 247Q650 136 570.50 65Q491-6 369-6Q245-6 168 66.50Q91 139 91 250L91 700L167 700L167 262Q167 169 231 107Q295 45 389 45Q479 45 539 103Q599 161 599 247Z"  horiz-adv-x="743" vert-adv-y="1000"  />

      
      <glyph glyph-name="uni56" unicode="&#x56;" d="M376-5L31 700L115 700L401 99L687 700L741 700L401-5L376-5Z"  horiz-adv-x="772" vert-adv-y="1000"  />

      
      <glyph glyph-name="uni57" unicode="&#x57;" d="M781-6L587 448L380-6L357-6L31 700L115 700L382 111L563 506L480 700L558 700L804 112L1041 700L1096 700L803-6L781-6Z"  horiz-adv-x="1127" vert-adv-y="1000"  />

      
      <glyph glyph-name="uni58" unicode="&#x58;" d="M135 700L368 400L605 700L667 700L399 361L681 0L592 0L348 312L98 0L36 0L317 352L45 700L135 700Z"  horiz-adv-x="717" vert-adv-y="1000"  />

      
      <glyph glyph-name="uni59" unicode="&#x59;" d="M309 0L309 284L34 700L124 700L358 343L592 700L653 700L385 297L385 0L309 0Z"  horiz-adv-x="687" vert-adv-y="1000"  />

      
      <glyph glyph-name="uni5a" unicode="&#x5a;" d="M69 649L69 700L663 700L663 679L176 46L663 51L663 0L64 0L64 21L550 654L69 649Z"  horiz-adv-x="729" vert-adv-y="1000"  />

      
      <glyph glyph-name="uni5b" unicode="&#x5b;" d="M100-200L100 750L300 750L300 708L165 708L165-158L300-158L300-200L100-200Z"  horiz-adv-x="359" vert-adv-y="1000"  />

      
      <glyph glyph-name="uni5c" unicode="&#x5c;" d="M38 762L460-144L422-162L0 744L38 762Z"  horiz-adv-x="460" vert-adv-y="1000"  />

      
      <glyph glyph-name="uni5d" unicode="&#x5d;" d="M259 750L259-200L59-200L59-158L194-158L194 708L59 708L59 750L259 750Z"  horiz-adv-x="359" vert-adv-y="1000"  />

      
      <glyph glyph-name="uni5e" unicode="&#x5e;" d="M61 476L268 706L289 706L496 476L468 448L278 634L89 448L61 476Z"  horiz-adv-x="557" vert-adv-y="1000"  />

      
      <glyph glyph-name="uni5f" unicode="&#x5f;" d="M-2-92L-2-50L498-50L498-92L-2-92Z"  horiz-adv-x="497" vert-adv-y="1000"  />

      
      <glyph glyph-name="uni60" unicode="&#x60;" d="M100 723L219 582L198 561L52 681L100 723Z"  horiz-adv-x="268" vert-adv-y="1000"  />

      
      <glyph glyph-name="uni61" unicode="&#x61;" d="M432 335L432 86Q432 47 466 47Q478 47 493 52Q508 57 516 62L525 67L525 23Q489-6 434-6Q367-6 360 56Q292-6 197-6Q129-6 93.50 28.50Q58 63 58 113Q58 155 85.50 188Q113 221 148.50 238Q184 255 232.50 266.50Q281 278 307 280.50Q333 283 359 285L359 323Q359 374 328.50 403Q298 432 237 432Q195 432 156.50 418.50Q118 405 100 392L82 378L82 421Q89 428 103.50 439Q118 450 166 468Q214 486 267 486Q350 486 391 446Q432 406 432 335M131 125Q131 91 156.50 68Q182 45 229 45Q294 45 359 95L359 245Q334 244 304 239.50Q274 235 230.50 223Q187 211 159 185.50Q131 160 131 125Z"  horiz-adv-x="544" vert-adv-y="1000"  />

      
      <glyph glyph-name="uni62" unicode="&#x62;" d="M154 750L163 727L163 434Q232 486 327 486Q432 486 495.50 419.50Q559 353 559 252Q559 141 485 67.50Q411-6 304-6Q196-6 141 65L111-5L90-5L90 750L154 750M298 435Q223 435 163 393L163 149Q171 101 210.50 73Q250 45 307 45Q385 45 434 98Q483 151 483 234Q483 323 431.50 379Q380 435 298 435Z"  horiz-adv-x="605" vert-adv-y="1000"  />

      
      <glyph glyph-name="uni63" unicode="&#x63;" d="M499 300L433 300Q433 361 394 398Q355 435 293 435Q217 435 171 382Q125 329 125 247Q125 157 176 104Q227 51 318 51Q364 51 406.50 64.50Q449 78 468 92L488 106L488 61Q485 58 480 53.50Q475 49 457 37.50Q439 26 418.50 17Q398 8 365 1Q332-6 297-6Q184-6 116.50 61Q49 128 49 232Q49 341 120.50 413.50Q192 486 300 486Q390 486 444.50 435Q499 384 499 300Z"  horiz-adv-x="552" vert-adv-y="1000"  />

      
      <glyph glyph-name="uni64" unicode="&#x64;" d="M450 0L443 48Q375-6 277-6Q173-6 109.50 60.50Q46 127 46 228Q46 339 120 412.50Q194 486 301 486Q387 486 442 437L442 750L507 750L515 727L515 0L450 0M307 45Q385 45 442 87L442 331Q434 378 394 406.50Q354 435 298 435Q219 435 170 382Q121 329 121 246Q121 157 172.50 101Q224 45 307 45Z"  horiz-adv-x="605" vert-adv-y="1000"  />

      
      <glyph glyph-name="uni65" unicode="&#x65;" d="M125 229Q130 146 182.50 98.50Q235 51 322 51Q370 51 413.50 64.50Q457 78 477 92L497 106L497 62Q494 59 488.50 54.50Q483 50 464.50 38.50Q446 27 425 18Q404 9 370.50 1.50Q337-6 302-6Q188-6 118.50 61.50Q49 129 49 233Q49 341 123 413.50Q197 486 307 486Q407 486 460.50 421.50Q514 357 514 242L490 229L125 229M298 435Q228 435 181 390.50Q134 346 126 274L447 274Q439 352 400.50 393.50Q362 435 298 435Z"  horiz-adv-x="571" vert-adv-y="1000"  />

      
      <glyph glyph-name="uni66" unicode="&#x66;" d="M17 433L27 480L129 480L129 588Q129 661 178 708.50Q227 756 304 756L347 752L347 697Q331 705 306 705Q259 705 230.50 676Q202 647 202 597L202 480L342 480L342 433L202 433L202 0L129 0L129 433L17 433Z"  horiz-adv-x="355" vert-adv-y="1000"  />

      
      <glyph glyph-name="uni67" unicode="&#x67;" d="M17-114Q17-67 55.50-30Q94 7 160 27Q117 51 117 92Q117 136 168 163Q117 183 87 222.50Q57 262 57 312Q57 385 119 435.50Q181 486 269 486Q298 486 323 480L494 480L494 432L405 439Q458 392 458 323Q458 250 399.50 199Q341 148 254 148L247 148Q216 146 195.50 132.50Q175 119 175 99Q175 76 201.50 60.50Q228 45 267 43L275 43Q379 43 448 2Q517-39 517-100Q517-165 440.50-210.50Q364-256 253-256Q149-256 83-216Q17-176 17-114M89-103Q89-147 140.50-177.50Q192-208 269-208Q343-208 394-180Q445-152 445-111Q445-67 390.50-36.50Q336-6 258-6Q184-6 136.50-33.50Q89-61 89-103M126 322Q126 271 167 233.50Q208 196 267 196Q322 196 357 229.50Q392 263 392 313Q392 366 354 402.50Q316 439 258 439Q202 439 164 405.50Q126 372 126 322Z"  horiz-adv-x="536" vert-adv-y="1000"  />

      
      <glyph glyph-name="uni68" unicode="&#x68;" d="M90 0L90 750L154 750L163 727L163 434Q232 486 329 486Q420 486 469 436Q518 386 518 301L518 0L445 0L445 289Q445 357 406.50 396Q368 435 299 435Q223 435 163 393L163 0L90 0Z"  horiz-adv-x="604" vert-adv-y="1000"  />

      
      <glyph glyph-name="uni69" unicode="&#x69;" d="M90 0L90 480L154 480L163 457L163 0L90 0M94 615.50Q94 615.50 87.50 622.25Q81 629 81 648Q81 667 94 680Q107 693 126 693Q145 693 158.50 680Q172 667 172 648Q172 628 159 615Q146 602 126 602Q107 602 94 615.50Z"  horiz-adv-x="252" vert-adv-y="1000"  />

      
      <glyph glyph-name="uni6a" unicode="&#x6a;" d="M105.50 608.50Q105.50 608.50 98.75 615.25Q92 622 92 641Q92 660 105.50 673Q119 686 138 686Q157 686 170.50 673Q184 660 184 641Q184 622 171 608.50Q158 595 138 595Q119 595 105.50 608.50M102-80L102 480L166 480L174 457L174-71Q174-149 118.50-202.50Q63-256-14-256L-42-253L-42-192Q-29-201-10-201Q38-201 70-167Q102-133 102-80Z"  horiz-adv-x="264" vert-adv-y="1000"  />

      
      <glyph glyph-name="uni6b" unicode="&#x6b;" d="M154 750L163 727L163 260L217 270L403 480L466 480L271 262L492 0L408 0L215 226L163 216L163 0L90 0L90 750L154 750Z"  horiz-adv-x="518" vert-adv-y="1000"  />

      
      <glyph glyph-name="uni6c" unicode="&#x6c;" d="M90 88L90 750L154 750L163 727L163 101Q163 77 175 62Q187 47 210 47Q223 47 239 51.50Q255 56 264 60L274 64L274 21Q235-6 180-6Q90-6 90 88Z"  horiz-adv-x="287" vert-adv-y="1000"  />

      
      <glyph glyph-name="uni6d" unicode="&#x6d;" d="M809 301L809 0L736 0L736 289Q736 357 701.50 396Q667 435 606 435Q529 435 472 384Q486 347 486 301L486 0L413 0L413 289Q413 357 378.50 396Q344 435 284 435Q218 435 163 393L163 0L90 0L90 480L154 480L162 432Q223 486 314 486Q412 486 457 415Q471 428 490 441.50Q509 455 550.50 470.50Q592 486 635 486Q718 486 763.50 436Q809 386 809 301Z"  horiz-adv-x="895" vert-adv-y="1000"  />

      
      <glyph glyph-name="uni6e" unicode="&#x6e;" d="M154 480L162 432Q230 486 330 486Q420 486 469 436Q518 386 518 301L518 0L445 0L445 289Q445 357 406.50 396Q368 435 299 435Q223 435 163 393L163 0L90 0L90 480L154 480Z"  horiz-adv-x="604" vert-adv-y="1000"  />

      
      <glyph glyph-name="uni6f" unicode="&#x6f;" d="M49 233Q49 340 125 413Q201 486 310 486Q415 486 485 417.50Q555 349 555 247Q555 140 479.50 67Q404-6 294-6Q189-6 119 62.50Q49 131 49 233M125 248Q125 162 177.50 103.50Q230 45 307 45Q381 45 430.50 98.50Q480 152 480 232Q480 318 427 376.50Q374 435 297 435Q223 435 174 381.50Q125 328 125 248Z"  horiz-adv-x="605" vert-adv-y="1000"  />

      
      <glyph glyph-name="uni70" unicode="&#x70;" d="M154 480L162 432Q226 486 328 486Q432 486 495.50 419.50Q559 353 559 252Q559 141 485 67.50Q411-6 304-6Q217-6 163 42L163-250L90-250L90 480L154 480M298 435Q223 435 163 393L163 149Q171 101 210.50 73Q250 45 307 45Q385 45 434 98Q483 151 483 234Q483 323 431.50 379Q380 435 298 435Z"  horiz-adv-x="605" vert-adv-y="1000"  />

      
      <glyph glyph-name="uni71" unicode="&#x71;" d="M515-250L442-250L442 46Q373-6 277-6Q173-6 109.50 60.50Q46 127 46 228Q46 339 120 412.50Q194 486 301 486Q406 486 462 416L494 485L515 485L515-250M307 45Q385 45 442 87L442 331Q434 378 394 406.50Q354 435 298 435Q219 435 170 382Q121 329 121 246Q121 157 172.50 101Q224 45 307 45Z"  horiz-adv-x="605" vert-adv-y="1000"  />

      
      <glyph glyph-name="uni72" unicode="&#x72;" d="M145 480L161 379Q175 400 195 420.50Q215 441 261.50 463.50Q308 486 362 486L362 418Q313 418 267.50 400.50Q222 383 200.50 367Q179 351 163 333L163 0L90 0L90 480L145 480Z"  horiz-adv-x="405" vert-adv-y="1000"  />

      
      <glyph glyph-name="uni73" unicode="&#x73;" d="M349 119Q349 144 327.50 158.50Q306 173 231 204Q221 209 215 211Q127 247 92 277Q57 307 57 359Q57 424 103 455Q149 486 227 486Q272 486 310.50 476Q349 466 365 456L381 446L381 385Q375 391 363 399Q351 407 310.50 421Q270 435 224 435Q118 435 118 367Q118 347 132.50 331.50Q147 316 166 307Q185 298 230 280Q234 278 236.50 277Q239 276 243 274.50Q247 273 250 272Q339 237 375 207Q411 177 411 127Q411 62 362 28Q313-6 233-6Q185-6 141.50 6Q98 18 78 30L59 42L59 102Q67 96 81.50 86.50Q96 77 142 61Q188 45 236 45Q287 45 318 64.50Q349 84 349 119Z"  horiz-adv-x="466" vert-adv-y="1000"  />

      
      <glyph glyph-name="uni74" unicode="&#x74;" d="M19 433L27 480L129 480L140 625L193 625L201 602L201 480L348 480L348 433L201 433L201 138Q201 96 231 70.50Q261 45 311 45L348 49L348 5Q323-6 280-6Q207-6 167.50 30.50Q128 67 128 131L128 433L19 433Z"  horiz-adv-x="407" vert-adv-y="1000"  />

      
      <glyph glyph-name="uni75" unicode="&#x75;" d="M450 0L443 48Q375-6 272-6Q182-6 134 40.50Q86 87 86 174L86 480L151 480L159 429L159 186Q159 116 196.50 80.50Q234 45 303 45Q382 45 442 87L442 480L506 480L514 429L514 0L450 0Z"  horiz-adv-x="604" vert-adv-y="1000"  />

      
      <glyph glyph-name="uni76" unicode="&#x76;" d="M264-5L19 480L101 480L286 98L472 480L527 480L287-5L264-5Z"  horiz-adv-x="546" vert-adv-y="1000"  />

      
      <glyph glyph-name="uni77" unicode="&#x77;" d="M542-5L413 296L271-5L248-5L19 480L101 480L270 103L387 355L334 480L409 480L565 105L719 480L774 480L565-5L542-5Z"  horiz-adv-x="793" vert-adv-y="1000"  />

      
      <glyph glyph-name="uni78" unicode="&#x78;" d="M121 480L269 290L421 480L483 480L300 251L497 0L410 0L251 203L88 0L26 0L220 242L35 480L121 480Z"  horiz-adv-x="523" vert-adv-y="1000"  />

      
      <glyph glyph-name="uni79" unicode="&#x79;" d="M49-247L49-176Q71-188 100-188Q133-188 160-157Q187-126 228-40L249 5L19 480L99 480L287 86L469 480L523 480L270-63Q220-169 180-212.50Q140-256 90-256Q78-256 67.50-254Q57-252 53-250L49-247Z"  horiz-adv-x="543" vert-adv-y="1000"  />

      
      <glyph glyph-name="uni7a" unicode="&#x7a;" d="M64 432L64 480L492 480L492 459L167 45L492 48L492 0L59 0L59 21L385 435L64 432Z"  horiz-adv-x="553" vert-adv-y="1000"  />

      
      <glyph glyph-name="uni7b" unicode="&#x7b;" d="M51 253L51 297Q170 297 170 412L170 591Q170 670 216 713Q262 756 354 756L354 712Q235 712 235 597L235 418Q235 312 144 275Q235 237 235 132L235-47Q235-162 354-162L354-206Q262-206 216-163Q170-120 170-41L170 138Q170 253 51 253Z"  horiz-adv-x="413" vert-adv-y="1000"  />

      
      <glyph glyph-name="uni7c" unicode="&#x7c;" d="M100-100L100 800L142 800L142-100L100-100Z"  horiz-adv-x="241" vert-adv-y="1000"  />

      
      <glyph glyph-name="uni7d" unicode="&#x7d;" d="M362 297L362 253Q243 253 243 138L243-41Q243-120 197-163Q151-206 59-206L59-162Q178-162 178-47L178 132Q178 237 269 275Q178 312 178 418L178 597Q178 712 59 712L59 756Q151 756 197 713Q243 670 243 591L243 412Q243 297 362 297Z"  horiz-adv-x="413" vert-adv-y="1000"  />

      
      <glyph glyph-name="uni7e" unicode="&#x7e;" d="M98 267L72 293Q74 296 77.50 302Q81 308 94 322.50Q107 337 121 348.50Q135 360 157.50 369Q180 378 204 378Q242 378 286.50 343Q331 308 361 308Q378 308 394.50 314.50Q411 321 422.50 330.50Q434 340 442.50 350Q451 360 456 366L460 373L486 347Q484 344 480 338Q476 332 463 317.50Q450 303 436 291.50Q422 280 399.50 271Q377 262 353 262Q314 262 270 297Q226 332 195 332Q178 332 161.50 325.50Q145 319 134 309.50Q123 300 114.50 290Q106 280 102 274L98 267Z"  horiz-adv-x="557" vert-adv-y="1000"  />

      
      <glyph glyph-name="unia1" unicode="&#xa1;" d="M164.50 474Q164.50 474 170.75 468Q177 462 177 444Q177 426 164.50 413.50Q152 401 135 401Q117 401 104.50 413.50Q92 426 92 444Q92 462 104.50 474Q117 486 135 486Q152 486 164.50 474M160 279L169 9L169-220L100-220L100 9L109 279L160 279Z"  horiz-adv-x="269" vert-adv-y="1000"  />

      
      <glyph glyph-name="unia2" unicode="&#xa2;" d="M499 300L433 300Q433 361 394 398Q355 435 293 435Q217 435 171 382Q125 329 125 247Q125 157 176 104Q227 51 318 51Q364 51 406.50 64.50Q449 78 468 92L488 106L488 61Q481 54 468 44Q455 34 410.50 15.50Q366-3 315-5L315-100L273-100L273-5Q170 2 109.50 68Q49 134 49 232Q49 334 112 404.50Q175 475 273 484L273 580L315 580L315 485Q399 480 449 430Q499 380 499 300Z"  horiz-adv-x="552" vert-adv-y="1000"  />

      
      <glyph glyph-name="unia3" unicode="&#xa3;" d="M94 291L94 332L158 332Q135 369 126 385.50Q117 402 105.50 438.50Q94 475 94 513Q94 604 150 655Q206 706 309 706Q366 706 413 690Q460 674 478 658L496 643L496 576Q493 579 488.50 584Q484 589 466 602.50Q448 616 427.50 626Q407 636 373.50 644Q340 652 303 652Q159 652 159 521Q159 492 167.50 463.50Q176 435 183.50 420Q191 405 211 373.50Q231 342 236 332L423 332L423 291L257 291Q279 240 279 184Q279 108 246 48L516 51L516 0L70 0L70 46L187 47Q216 99 216 168Q216 229 183 291L94 291Z"  horiz-adv-x="566" vert-adv-y="1000"  />

      
      <glyph glyph-name="unia4" unicode="&#xa4;" d="M118 350Q118 405 151 447L61 538L90 568L181 476Q223 510 278 510Q333 510 375 476L467 568L496 538L405 447Q439 403 439 350Q439 296 405 252L496 162L467 132L375 223Q334 190 278 190Q222 190 181 223L90 132L61 162L151 252Q118 294 118 350M194.50 433.50Q194.50 433.50 177.25 416.25Q160 399 160 350Q160 301 194.50 266.50Q229 232 278 232Q327 232 362 266.50Q397 301 397 350Q397 399 362 433.50Q327 468 278 468Q229 468 194.50 433.50Z"  horiz-adv-x="557" vert-adv-y="1000"  />

      
      <glyph glyph-name="unia5" unicode="&#xa5;" d="M148 261L148 302L297 302L34 700L124 700L358 343L592 700L653 700L388 302L546 302L546 261L385 261L385 162L546 162L546 121L385 121L385 0L309 0L309 121L148 121L148 162L309 162L309 261L148 261Z"  horiz-adv-x="687" vert-adv-y="1000"  />

      
      <glyph glyph-name="unia6" unicode="&#xa6;" d="M100-100L100 300L142 300L142-100L100-100M142 800L142 400L100 400L100 800L142 800Z"  horiz-adv-x="241" vert-adv-y="1000"  />

      
      <glyph glyph-name="unia7" unicode="&#xa7;" d="M349 115Q349 122 348 127.50Q347 133 343.50 138Q340 143 336.50 146.50Q333 150 325 155Q317 160 311 163Q305 166 293 171.50Q281 177 272 180.50Q263 184 245.50 191.50Q228 199 215 204Q128 239 92.50 271Q57 303 57 356Q57 443 142 472Q96 495 76.50 519Q57 543 57 581Q57 644 103 675Q149 706 227 706Q272 706 310.50 696Q349 686 365 676L381 666L381 605Q375 611 363 619Q351 627 310.50 641Q270 655 224 655Q118 655 118 588Q118 580 119.50 574Q121 568 125 562Q129 556 132.50 551.50Q136 547 144.50 542Q153 537 159 534Q165 531 177.50 525.50Q190 520 198 517Q206 514 223 507.50Q240 501 250 497Q338 462 374.50 430Q411 398 411 349Q411 263 321 230Q370 207 390.50 183.50Q411 160 411 124Q411 61 362 27.50Q313-6 232-6Q184-6 141 6Q98 18 78 30L59 42L59 102Q67 96 81.50 86.50Q96 77 142.50 61Q189 45 238 45Q287 45 318 63Q349 81 349 115M351 340Q351 368 324 387Q297 406 215 440Q213 440 212 441Q167 438 142 417Q117 396 117 365Q117 351 123.50 338.50Q130 326 138.50 317.50Q147 309 167 298.50Q187 288 201.50 281.50Q216 275 247 262Q294 264 322.50 284.50Q351 305 351 340Z"  horiz-adv-x="466" vert-adv-y="1000"  />

      
      <glyph glyph-name="unia8" unicode="&#xa8;" d="M81 628Q81 644 92.50 655.50Q104 667 120 667Q136 667 147.50 655.50Q159 644 159 628Q159 611 148 599.50Q137 588 120 588Q103 588 92 599.50Q81 611 81 628M284 628Q284 644 295 655.50Q306 667 323 667Q340 667 351 655.50Q362 644 362 628Q362 611 351 599.50Q340 588 323 588Q306 588 295 599.50Q284 611 284 628Z"  horiz-adv-x="443" vert-adv-y="1000"  />

      
      <glyph glyph-name="unia9" unicode="&#xa9;" d="M163 96Q163 96 112 147Q61 198 61 350Q61 502 163 604Q265 706 417 706Q569 706 671.50 604Q774 502 774 350Q774 198 671.50 96Q569-6 417-6Q265-6 163 96M193 574.50Q193 574.50 147.50 529.25Q102 484 102 350Q102 216 193 125.50Q284 35 417 35Q550 35 641 125.50Q732 216 732 350Q732 484 641 574.50Q550 665 417 665Q284 665 193 574.50M567 393L522 393Q522 438 493.50 467Q465 496 416 496Q360 496 326 457Q292 418 292 356Q292 288 331 248Q370 208 439 208Q472 208 502 218Q532 228 546 238L559 247L559 221Q554 216 543.50 207.50Q533 199 497 185.50Q461 172 421 172Q340 172 292 220.50Q244 269 244 344Q244 422 295.50 475.50Q347 529 425 529Q489 529 528 491.50Q567 454 567 393Z"  horiz-adv-x="834" vert-adv-y="1000"  />

      
      <glyph glyph-name="uniaa" unicode="&#xaa;" d="M285 604L285 449Q285 424 307 424Q315 424 324 427Q333 430 338 434L344 437L344 404Q319 383 280 383Q235 383 229 423Q186 383 125 383Q80 383 57 405.50Q34 428 34 461Q34 495 58 519Q82 543 120 553.50Q158 564 182 568.50Q206 573 228 574L228 595Q228 663 149 663Q122 663 98 654.50Q74 646 63 638L52 630L52 662Q57 667 66 674Q75 681 106.50 693Q138 705 174 705Q285 705 285 604M92 471Q92 450 108 436Q124 422 151 422Q190 422 228 452L228 544Q92 534 92 471Z"  horiz-adv-x="355" vert-adv-y="1000"  />

      
      <glyph glyph-name="uniab" unicode="&#xab;" d="M232 129L66 279L66 300L232 450L257 426L133 290L257 154L232 129M411 129L244 279L244 300L411 450L435 426L312 290L435 154L411 129Z"  horiz-adv-x="505" vert-adv-y="1000"  />

      
      <glyph glyph-name="uniac" unicode="&#xac;" d="M84 349L84 391L463 391L463 198L421 198L421 349L84 349Z"  horiz-adv-x="557" vert-adv-y="1000"  />

      
      <glyph glyph-name="uniad" unicode="&#xad;" d="M59 269L59 311L288 311L288 269L59 269Z"  horiz-adv-x="347" vert-adv-y="1000"  />

      
      <glyph glyph-name="uniae" unicode="&#xae;" d="M163 96Q163 96 112 147Q61 198 61 350Q61 502 163 604Q265 706 417 706Q569 706 671.50 604Q774 502 774 350Q774 198 671.50 96Q569-6 417-6Q265-6 163 96M193 574.50Q193 574.50 147.50 529.25Q102 484 102 350Q102 216 193 125.50Q284 35 417 35Q550 35 641 125.50Q732 216 732 350Q732 484 641 574.50Q550 665 417 665Q284 665 193 574.50M311 180L311 530L423 530Q469 530 500 502.50Q531 475 531 434Q531 401 510 375Q489 349 455 337Q475 319 499.50 280Q524 241 538 210L553 180L506 180Q458 294 416 330L358 330L358 180L311 180M409 503L358 503L358 358L420 358Q448 358 466.50 377Q485 396 485 425Q485 458 463 480.50Q441 503 409 503Z"  horiz-adv-x="834" vert-adv-y="1000"  />

      
      <glyph glyph-name="uniaf" unicode="&#xaf;" d="M48 604L48 649L277 649L277 604L48 604Z"  horiz-adv-x="325" vert-adv-y="1000"  />

      
      <glyph glyph-name="unib0" unicode="&#xb0;" d="M54 596Q54 642 86 674Q118 706 164 706Q210 706 242 674Q274 642 274 596Q274 551 242 518.50Q210 486 164 486Q118 486 86 518.50Q54 551 54 596M92 596Q92 567 113.50 546Q135 525 164 525Q193 525 214.50 546Q236 567 236 596Q236 626 214.50 647Q193 668 164 668Q135 668 113.50 647Q92 626 92 596Z"  horiz-adv-x="328" vert-adv-y="1000"  />

      
      <glyph glyph-name="unib1" unicode="&#xb1;" d="M94 359L94 401L258 401L258 565L299 565L299 401L463 401L463 359L299 359L299 195L258 195L258 359L94 359M94 82L94 124L463 124L463 82L94 82Z"  horiz-adv-x="557" vert-adv-y="1000"  />

      
      <glyph glyph-name="unib2" unicode="&#xb2;" d="M255 392L255 350L26 350L26 373Q33 379 44.50 389Q56 399 86 428Q116 457 139 483.50Q162 510 180.50 543Q199 576 199 600Q199 628 176 646.50Q153 665 117 665Q96 665 75.50 658.50Q55 652 44 646L34 639L34 670Q69 704 136 704Q191 704 222 676.50Q253 649 253 611Q253 520 85 389L255 392Z"  horiz-adv-x="287" vert-adv-y="1000"  />

      
      <glyph glyph-name="unib3" unicode="&#xb3;" d="M36 659L36 700L238 700L238 686L132 558Q136 559 145 559Q194 559 224.50 533Q255 507 255 462Q255 413 218.50 379.50Q182 346 116 346Q90 346 67.50 352Q45 358 36 364L26 369L26 408Q68 380 120 380Q160 380 184 400.50Q208 421 208 455Q208 488 186.50 506.50Q165 525 124 525Q112 525 102 523.50Q92 522 88 520L83 519L76 539L175 663L36 659Z"  horiz-adv-x="288" vert-adv-y="1000"  />

      
      <glyph glyph-name="unib4" unicode="&#xb4;" d="M52 582L171 723L219 681L73 561L52 582Z"  horiz-adv-x="268" vert-adv-y="1000"  />

      
      <glyph glyph-name="unib6" unicode="&#xb6;" d="M596 700L596-64Q596-147 539.50-201.50Q483-256 395-256L395-212Q455-212 494-172Q533-132 533-70L533 654L389 654L389 0L325 0L325 306L258 306Q170 306 111.50 361Q53 416 53 497Q53 582 118 641Q183 700 277 700L596 700Z"  horiz-adv-x="697" vert-adv-y="1000"  />

      
      <glyph glyph-name="unib7" unicode="&#xb7;" d="M79.50 244.50Q79.50 244.50 73.25 250.75Q67 257 67 275Q67 293 79.50 305.50Q92 318 109 318Q127 318 139.50 305.50Q152 293 152 275Q152 257 139.50 244.50Q127 232 109 232Q92 232 79.50 244.50Z"  horiz-adv-x="219" vert-adv-y="1000"  />

      
      <glyph glyph-name="unib8" unicode="&#xb8;" d="M102-87L117 0L155 0L145-58Q181-54 203-69.50Q225-85 225-115Q225-149 198-170Q171-191 131-191Q108-191 87.50-182.50Q67-174 58-166L50-158L71-132Q95-159 135-159Q157-159 169.50-148.50Q182-138 182-120Q182-103 169.50-93Q157-83 135-83L102-87Z"  horiz-adv-x="275" vert-adv-y="1000"  />

      
      <glyph glyph-name="unib9" unicode="&#xb9;" d="M36 637L36 680L163 704L163 350L112 350L112 659L36 637Z"  horiz-adv-x="227" vert-adv-y="1000"  />

      
      <glyph glyph-name="uniba" unicode="&#xba;" d="M30 538Q30 608 80.50 656.50Q131 705 203 705Q272 705 317.50 660.50Q363 616 363 550Q363 480 312 431.50Q261 383 190 383Q121 383 75.50 427.50Q30 472 30 538M90 551Q90 497 122 459.50Q154 422 200 422Q245 422 274 454.50Q303 487 303 537Q303 591 271 628.50Q239 666 192 666Q148 666 119 633Q90 600 90 551Z"  horiz-adv-x="393" vert-adv-y="1000"  />

      
      <glyph glyph-name="unibb" unicode="&#xbb;" d="M94 450L260 300L260 279L94 129L69 154L192 290L69 426L94 450M272 450L439 300L439 279L272 129L248 154L371 290L248 426L272 450Z"  horiz-adv-x="505" vert-adv-y="1000"  />

      
      <glyph glyph-name="unibc" unicode="&#xbc;" d="M453 88L453 101L625 350L666 350L666 120L713 121L713 88L666 88L666 0L615 0L615 88L453 88M118-10L567 731L604 710L154-31L118-10M36 637L36 680L163 704L163 350L112 350L112 659L36 637M498 116L617 119L617 287L498 116Z"  horiz-adv-x="735" vert-adv-y="1000"  />

      
      <glyph glyph-name="unibd" unicode="&#xbd;" d="M118-10L567 731L604 710L154-31L118-10M726 42L726 0L497 0L497 23Q504 29 515.50 39Q527 49 557 78Q587 107 610 133.50Q633 160 651.50 193Q670 226 670 250Q670 278 647 296.50Q624 315 588 315Q567 315 546.50 308.50Q526 302 516 296L505 289L505 320Q540 354 607 354Q662 354 693 326.50Q724 299 724 261Q724 170 556 39L726 42M36 637L36 680L163 704L163 350L112 350L112 659L36 637Z"  horiz-adv-x="758" vert-adv-y="1000"  />

      
      <glyph glyph-name="unibe" unicode="&#xbe;" d="M493 88L493 101L666 350L706 350L706 120L753 121L753 88L706 88L706 0L655 0L655 88L493 88M151-10L601 731L638 710L188-31L151-10M36 659L36 700L238 700L238 686L132 558Q136 559 145 559Q194 559 224.50 533Q255 507 255 462Q255 413 218.50 379.50Q182 346 116 346Q90 346 67.50 352Q45 358 36 364L26 369L26 408Q68 380 120 380Q160 380 184 400.50Q208 421 208 455Q208 488 186.50 506.50Q165 525 124 525Q112 525 102 523.50Q92 522 88 520L83 519L76 539L175 663L36 659M539 116L657 119L657 286L539 116Z"  horiz-adv-x="776" vert-adv-y="1000"  />

      
      <glyph glyph-name="unibf" unicode="&#xbf;" d="M285 279L292 129Q285 127 273.50 124Q262 121 233 108Q204 95 182 78Q160 61 141.50 31Q123 1 123-35Q123-93 166.50-131Q210-169 284-169Q328-169 370-155Q412-141 432-127L452-113L452-159Q449-162 444-166.50Q439-171 421-182.50Q403-194 382.50-203Q362-212 328.50-219Q295-226 259-226Q159-226 103.50-176Q48-126 48-45Q48 0 66.50 38Q85 76 111.50 98.50Q138 121 165 136.50Q192 152 210 158L229 164L233 279L285 279M289 474Q289 474 295 468Q301 462 301 444Q301 426 289 413.50Q277 401 259 401Q241 401 228.50 413.50Q216 426 216 444Q216 462 228.50 474Q241 486 259 486Q277 486 289 474Z"  horiz-adv-x="488" vert-adv-y="1000"  />

      
      <glyph glyph-name="unic0" unicode="&#xc0;" d="M177 192L86 0L31 0L371 705L396 705L741 0L657 0L566 192L177 192M371 601L199 239L543 239L371 601M317 919L436 779L415 757L269 877L317 919Z"  horiz-adv-x="772" vert-adv-y="1000"  />

      
      <glyph glyph-name="unic1" unicode="&#xc1;" d="M177 192L86 0L31 0L371 705L396 705L741 0L657 0L566 192L177 192M371 601L199 239L543 239L371 601M329 779L448 919L496 877L350 757L329 779Z"  horiz-adv-x="772" vert-adv-y="1000"  />

      
      <glyph glyph-name="unic2" unicode="&#xc2;" d="M177 192L86 0L31 0L371 705L396 705L741 0L657 0L566 192L177 192M371 601L199 239L543 239L371 601M252 779L372 915L393 915L513 779L492 757L383 852L274 757L252 779Z"  horiz-adv-x="772" vert-adv-y="1000"  />

      
      <glyph glyph-name="unic3" unicode="&#xc3;" d="M177 192L86 0L31 0L371 705L396 705L741 0L657 0L566 192L177 192M371 601L199 239L543 239L371 601M259 781L239 801Q240 804 242.50 808.50Q245 813 253 824.50Q261 836 270.50 845Q280 854 296 861Q312 868 330 868Q358 868 392.50 846.50Q427 825 447 825Q466 825 481 835.50Q496 846 502 856L507 866L527 845Q526 842 523.50 837.50Q521 833 513 821.50Q505 810 495 801Q485 792 469 785Q453 778 435 778Q407 778 372 799.50Q337 821 317 821Q299 821 284.50 811Q270 801 264 791L259 781Z"  horiz-adv-x="772" vert-adv-y="1000"  />

      
      <glyph glyph-name="unic4" unicode="&#xc4;" d="M177 192L86 0L31 0L371 705L396 705L741 0L657 0L566 192L177 192M371 601L199 239L543 239L371 601M456.50 795.50Q456.50 795.50 450.75 801.25Q445 807 445 824Q445 841 456.50 852Q468 863 485 863Q502 863 513 851.50Q524 840 524 824Q524 807 512.50 795.50Q501 784 485 784Q468 784 456.50 795.50M242 824Q242 840 253 851.50Q264 863 281 863Q298 863 309.50 852Q321 841 321 824Q321 807 309.50 795.50Q298 784 281 784Q265 784 253.50 795.50Q242 807 242 824Z"  horiz-adv-x="772" vert-adv-y="1000"  />

      
      <glyph glyph-name="unic5" unicode="&#xc5;" d="M177 192L86 0L31 0L371 705L396 705L741 0L657 0L566 192L177 192M371 601L199 239L543 239L371 601M293 832Q293 870 320.50 896.50Q348 923 387 923Q424 923 448.50 898.50Q473 874 473 838Q473 801 445 774Q417 747 379 747Q342 747 317.50 771.50Q293 796 293 832M334 837Q334 815 348.50 800.50Q363 786 384 786Q404 786 417.50 799.50Q431 813 431 833Q431 855 416.50 869.50Q402 884 381 884Q361 884 347.50 870.50Q334 857 334 837Z"  horiz-adv-x="772" vert-adv-y="1000"  />

      
      <glyph glyph-name="unic6" unicode="&#xc6;" d="M187 192L86 0L31 0L403 700L789 700L789 649L479 653L479 381L748 384L748 334L479 337L479 46L794 51L794 0L403 0L403 192L187 192M212 239L403 239L403 599L212 239Z"  horiz-adv-x="857" vert-adv-y="1000"  />

      
      <glyph glyph-name="unic7" unicode="&#xc7;" d="M371-87L385-5Q236 5 148.50 100.50Q61 196 61 339Q61 496 162.50 601Q264 706 419 706Q548 706 626 632Q704 558 704 437L631 437Q631 532 570 592Q509 652 407 652Q286 652 212 569Q138 486 138 357Q138 219 219.50 136.50Q301 54 441 54Q510 54 572 74.50Q634 95 662 116L690 136L690 91Q686 87 679 80.50Q672 74 646.50 58Q621 42 592.50 29Q564 16 518.50 5.50Q473-5 424-6L415-58Q451-54 473-69.50Q495-85 495-115Q495-149 467.50-170Q440-191 401-191Q378-191 357.50-182.50Q337-174 328-166L320-158L341-132Q364-159 404-159Q427-159 439.50-148.50Q452-138 452-120Q452-103 439.50-93Q427-83 405-83L371-87Z"  horiz-adv-x="772" vert-adv-y="1000"  />

      
      <glyph glyph-name="unic8" unicode="&#xc8;" d="M466 334L177 337L177 46L512 51L512 0L101 0L101 700L507 700L507 649L177 653L177 381L466 384L466 334M246 919L365 779L344 757L198 877L246 919Z"  horiz-adv-x="575" vert-adv-y="1000"  />

      
      <glyph glyph-name="unic9" unicode="&#xc9;" d="M466 334L177 337L177 46L512 51L512 0L101 0L101 700L507 700L507 649L177 653L177 381L466 384L466 334M258 779L377 919L425 877L279 757L258 779Z"  horiz-adv-x="575" vert-adv-y="1000"  />

      
      <glyph glyph-name="unica" unicode="&#xca;" d="M466 334L177 337L177 46L512 51L512 0L101 0L101 700L507 700L507 649L177 653L177 381L466 384L466 334M181 779L301 915L322 915L441 779L420 757L311 852L202 757L181 779Z"  horiz-adv-x="575" vert-adv-y="1000"  />

      
      <glyph glyph-name="unicb" unicode="&#xcb;" d="M101 0L101 700L507 700L507 649L177 653L177 381L466 384L466 334L177 337L177 46L512 51L512 0L101 0M182 796Q182 796 176 802Q170 808 170 824Q170 840 181.50 851.50Q193 863 210 863Q226 863 237.50 851.50Q249 840 249 824Q249 807 237.50 795.50Q226 784 210 784Q194 784 182 796M384.50 796Q384.50 796 378.75 802Q373 808 373 824Q373 840 384.50 851.50Q396 863 413 863Q430 863 441 851.50Q452 840 452 824Q452 807 440.50 795.50Q429 784 413 784Q396 784 384.50 796Z"  horiz-adv-x="575" vert-adv-y="1000"  />

      
      <glyph glyph-name="unicc" unicode="&#xcc;" d="M101 0L101 700L177 700L177 0L101 0M73 919L193 779L172 757L25 877L73 919Z"  horiz-adv-x="279" vert-adv-y="1000"  />

      
      <glyph glyph-name="unicd" unicode="&#xcd;" d="M101 0L101 700L177 700L177 0L101 0M85 779L205 919L253 877L107 757L85 779Z"  horiz-adv-x="279" vert-adv-y="1000"  />

      
      <glyph glyph-name="unice" unicode="&#xce;" d="M101 0L101 700L177 700L177 0L101 0M9 779L129 915L150 915L270 779L248 757L139 852L31 757L9 779Z"  horiz-adv-x="279" vert-adv-y="1000"  />

      
      <glyph glyph-name="unicf" unicode="&#xcf;" d="M101 0L101 700L177 700L177 0L101 0M-1 824Q-1 840 10.50 851.50Q22 863 38 863Q54 863 65.50 851.50Q77 840 77 824Q77 807 65.50 795.50Q54 784 38 784Q22 784 10.50 795.50Q-1 807-1 824M202 824Q202 840 213 851.50Q224 863 241 863Q258 863 269 851.50Q280 840 280 824Q280 807 268.50 795.50Q257 784 241 784Q225 784 213.50 795.50Q202 807 202 824Z"  horiz-adv-x="279" vert-adv-y="1000"  />

      
      <glyph glyph-name="unid0" unicode="&#xd0;" d="M20 338L20 379L129 379L129 700L392 700Q540 700 638 602Q736 504 736 359Q736 208 630 104Q524 0 371 0L129 0L129 338L20 338M371 654L205 654L205 379L385 379L385 338L205 338L205 46L391 46Q506 46 582.50 128Q659 210 659 334Q659 468 575.50 561Q492 654 371 654Z"  horiz-adv-x="797" vert-adv-y="1000"  />

      
      <glyph glyph-name="unid1" unicode="&#xd1;" d="M101 0L101 705L124 705L656 128L656 700L707 700L707-5L684-5L152 571L152 0L101 0M281 781L260 801Q261 804 263.50 808.50Q266 813 274 824.50Q282 836 291.50 845Q301 854 317.50 861Q334 868 352 868Q380 868 414 846.50Q448 825 468 825Q487 825 502 835.50Q517 846 522 856L528 866L549 845Q548 842 545.50 837.50Q543 833 534.50 821.50Q526 810 516.50 801Q507 792 490.50 785Q474 778 456 778Q428 778 393 799.50Q358 821 338 821Q320 821 305.50 811Q291 801 286 791L281 781Z"  horiz-adv-x="808" vert-adv-y="1000"  />

      
      <glyph glyph-name="unid2" unicode="&#xd2;" d="M61 341Q61 494 167 600Q273 706 426 706Q574 706 672.50 606.50Q771 507 771 359Q771 206 664.50 100Q558-6 405-6Q257-6 159 93.50Q61 193 61 341M138 365Q138 231 221 139.50Q304 48 426 48Q541 48 617 129.50Q693 211 693 335Q693 469 609.50 560.50Q526 652 405 652Q290 652 214 570.50Q138 489 138 365M349 919L469 779L448 757L301 877L349 919Z"  horiz-adv-x="831" vert-adv-y="1000"  />

      
      <glyph glyph-name="unid3" unicode="&#xd3;" d="M61 341Q61 494 167 600Q273 706 426 706Q574 706 672.50 606.50Q771 507 771 359Q771 206 664.50 100Q558-6 405-6Q257-6 159 93.50Q61 193 61 341M138 365Q138 231 221 139.50Q304 48 426 48Q541 48 617 129.50Q693 211 693 335Q693 469 609.50 560.50Q526 652 405 652Q290 652 214 570.50Q138 489 138 365M361 779L481 919L529 877L383 757L361 779Z"  horiz-adv-x="831" vert-adv-y="1000"  />

      
      <glyph glyph-name="unid4" unicode="&#xd4;" d="M61 341Q61 494 167 600Q273 706 426 706Q574 706 672.50 606.50Q771 507 771 359Q771 206 664.50 100Q558-6 405-6Q257-6 159 93.50Q61 193 61 341M138 365Q138 231 221 139.50Q304 48 426 48Q541 48 617 129.50Q693 211 693 335Q693 469 609.50 560.50Q526 652 405 652Q290 652 214 570.50Q138 489 138 365M285 779L405 915L426 915L546 779L524 757L415 852L307 757L285 779Z"  horiz-adv-x="831" vert-adv-y="1000"  />

      
      <glyph glyph-name="unid5" unicode="&#xd5;" d="M61 341Q61 494 167 600Q273 706 426 706Q574 706 672.50 606.50Q771 507 771 359Q771 206 664.50 100Q558-6 405-6Q257-6 159 93.50Q61 193 61 341M138 365Q138 231 221 139.50Q304 48 426 48Q541 48 617 129.50Q693 211 693 335Q693 469 609.50 560.50Q526 652 405 652Q290 652 214 570.50Q138 489 138 365M292 781L271 801Q272 804 274.50 808.50Q277 813 285 824.50Q293 836 303 845Q313 854 329 861Q345 868 363 868Q391 868 425.50 846.50Q460 825 480 825Q498 825 513 835.50Q528 846 534 856L539 866L560 845Q559 842 556.50 837.50Q554 833 545.50 821.50Q537 810 527.50 801Q518 792 501.50 785Q485 778 467 778Q439 778 404.50 799.50Q370 821 350 821Q331 821 316.50 811Q302 801 297 791L292 781Z"  horiz-adv-x="831" vert-adv-y="1000"  />

      
      <glyph glyph-name="unid6" unicode="&#xd6;" d="M61 341Q61 494 167 600Q273 706 426 706Q574 706 672.50 606.50Q771 507 771 359Q771 206 664.50 100Q558-6 405-6Q257-6 159 93.50Q61 193 61 341M138 365Q138 231 221 139.50Q304 48 426 48Q541 48 617 129.50Q693 211 693 335Q693 469 609.50 560.50Q526 652 405 652Q290 652 214 570.50Q138 489 138 365M286.50 802.50Q286.50 802.50 280.75 808.25Q275 814 275 831Q275 848 286.50 859Q298 870 314 870Q330 870 341.50 859Q353 848 353 831Q353 814 341.50 802.50Q330 791 314 791Q298 791 286.50 802.50M489.50 802.50Q489.50 802.50 483.75 808.25Q478 814 478 831Q478 848 489 859Q500 870 517 870Q534 870 545 859Q556 848 556 831Q556 814 544.50 802.50Q533 791 517 791Q501 791 489.50 802.50Z"  horiz-adv-x="831" vert-adv-y="1000"  />

      
      <glyph glyph-name="unid7" unicode="&#xd7;" d="M133 175L103 204L249 350L103 496L133 525L278 379L424 525L454 496L308 350L454 204L424 175L278 320L133 175Z"  horiz-adv-x="557" vert-adv-y="1000"  />

      
      <glyph glyph-name="unid8" unicode="&#xd8;" d="M61 341Q61 494 167 600Q273 706 426 706Q507 706 578 673L610 727L646 706L615 652Q687 606 729 529Q771 452 771 359Q771 206 664.50 100Q558-6 405-6Q324-6 253 27L222-27L186-6L216 47Q144 93 102.50 170Q61 247 61 341M136 365Q136 287 167 219.50Q198 152 252 108L545 615Q481 654 405 654Q289 654 212.50 572Q136 490 136 365M695 335Q695 413 664 480Q633 547 579 591L286 84Q348 46 426 46Q542 46 618.50 128.50Q695 211 695 335Z"  horiz-adv-x="831" vert-adv-y="1000"  />

      
      <glyph glyph-name="unid9" unicode="&#xd9;" d="M599 247L599 700L650 700L650 247Q650 136 570.50 65Q491-6 369-6Q245-6 168 66.50Q91 139 91 250L91 700L167 700L167 262Q167 169 231 107Q295 45 389 45Q479 45 539 103Q599 161 599 247M312 919L432 779L410 757L264 877L312 919Z"  horiz-adv-x="743" vert-adv-y="1000"  />

      
      <glyph glyph-name="unida" unicode="&#xda;" d="M599 247L599 700L650 700L650 247Q650 136 570.50 65Q491-6 369-6Q245-6 168 66.50Q91 139 91 250L91 700L167 700L167 262Q167 169 231 107Q295 45 389 45Q479 45 539 103Q599 161 599 247M324 772L444 912L492 870L345 750L324 772Z"  horiz-adv-x="743" vert-adv-y="1000"  />

      
      <glyph glyph-name="unidb" unicode="&#xdb;" d="M599 247L599 700L650 700L650 247Q650 136 570.50 65Q491-6 369-6Q245-6 168 66.50Q91 139 91 250L91 700L167 700L167 262Q167 169 231 107Q295 45 389 45Q479 45 539 103Q599 161 599 247M248 779L367 915L388 915L508 779L487 757L378 852L269 757L248 779Z"  horiz-adv-x="743" vert-adv-y="1000"  />

      
      <glyph glyph-name="unidc" unicode="&#xdc;" d="M599 247L599 700L650 700L650 247Q650 136 570.50 65Q491-6 369-6Q245-6 168 66.50Q91 139 91 250L91 700L167 700L167 262Q167 169 231 107Q295 45 389 45Q479 45 539 103Q599 161 599 247M248.50 795.50Q248.50 795.50 242.75 801.25Q237 807 237 824Q237 841 248.50 852Q260 863 277 863Q294 863 305 851.50Q316 840 316 824Q316 807 304.50 795.50Q293 784 277 784Q260 784 248.50 795.50M451.50 795.50Q451.50 795.50 445.75 801.25Q440 807 440 824Q440 841 451.50 852Q463 863 480 863Q496 863 507.50 851.50Q519 840 519 824Q519 807 507.50 795.50Q496 784 480 784Q463 784 451.50 795.50Z"  horiz-adv-x="743" vert-adv-y="1000"  />

      
      <glyph glyph-name="unidd" unicode="&#xdd;" d="M309 0L309 284L34 700L124 700L358 343L592 700L653 700L385 297L385 0L309 0M296 779L416 919L464 877L317 757L296 779Z"  horiz-adv-x="687" vert-adv-y="1000"  />

      
      <glyph glyph-name="unide" unicode="&#xde;" d="M101 0L101 700L177 700L177 551L314 551Q405 551 466 496Q527 441 527 360Q527 275 458.50 216Q390 157 292 157L177 157L177 0L101 0M292 505L177 505L177 204L310 204Q371 204 411.50 244.50Q452 285 452 347Q452 414 406 459.50Q360 505 292 505Z"  horiz-adv-x="580" vert-adv-y="1000"  />

      
      <glyph glyph-name="unidf" unicode="&#xdf;" d="M529 163Q529 205 507 244.50Q485 284 453.50 310.50Q422 337 390 357Q358 377 336 386L314 396L314 445Q318 448 324 452.50Q330 457 346 473Q362 489 374.50 505.50Q387 522 397 546.50Q407 571 407 595Q407 641 374.50 675.50Q342 710 287 710Q231 710 197 671.50Q163 633 163 567L163 0L90 0L90 558Q90 643 146.50 699.50Q203 756 300 756Q382 756 424.50 713.50Q467 671 467 610Q467 566 443.50 524Q420 482 397 462L374 442Q383 439 397.50 432.50Q412 426 449 402Q486 378 514.50 350Q543 322 566.50 275Q590 228 590 176Q590 92 536 43Q482-6 394-6Q350-6 310.50 6Q271 18 253 30L235 41L235 105Q243 98 258 88Q273 78 315.50 61.50Q358 45 398 45Q456 45 492.50 75.50Q529 106 529 163Z"  horiz-adv-x="634" vert-adv-y="1000"  />

      
      <glyph glyph-name="unie0" unicode="&#xe0;" d="M432 335L432 86Q432 47 466 47Q478 47 493 52Q508 57 516 62L525 67L525 23Q489-6 434-6Q367-6 360 56Q292-6 197-6Q129-6 93.50 28.50Q58 63 58 113Q58 155 85.50 188Q113 221 148.50 238Q184 255 232.50 266.50Q281 278 307 280.50Q333 283 359 285L359 323Q359 374 328.50 403Q298 432 237 432Q195 432 156.50 418.50Q118 405 100 392L82 378L82 421Q89 428 103.50 439Q118 450 166 468Q214 486 267 486Q350 486 391 446Q432 406 432 335M131 125Q131 91 156.50 68Q182 45 229 45Q294 45 359 95L359 245Q334 244 304 239.50Q274 235 230.50 223Q187 211 159 185.50Q131 160 131 125M201 723L321 582L300 561L153 681L201 723Z"  horiz-adv-x="544" vert-adv-y="1000"  />

      
      <glyph glyph-name="unie1" unicode="&#xe1;" d="M432 335L432 86Q432 47 466 47Q478 47 493 52Q508 57 516 62L525 67L525 23Q489-6 434-6Q367-6 360 56Q292-6 197-6Q129-6 93.50 28.50Q58 63 58 113Q58 155 85.50 188Q113 221 148.50 238Q184 255 232.50 266.50Q281 278 307 280.50Q333 283 359 285L359 323Q359 374 328.50 403Q298 432 237 432Q195 432 156.50 418.50Q118 405 100 392L82 378L82 421Q89 428 103.50 439Q118 450 166 468Q214 486 267 486Q350 486 391 446Q432 406 432 335M131 125Q131 91 156.50 68Q182 45 229 45Q294 45 359 95L359 245Q334 244 304 239.50Q274 235 230.50 223Q187 211 159 185.50Q131 160 131 125M213 582L333 723L381 681L235 561L213 582Z"  horiz-adv-x="544" vert-adv-y="1000"  />

      
      <glyph glyph-name="unie2" unicode="&#xe2;" d="M432 335L432 86Q432 47 466 47Q478 47 493 52Q508 57 516 62L525 67L525 23Q489-6 434-6Q367-6 360 56Q292-6 197-6Q129-6 93.50 28.50Q58 63 58 113Q58 155 85.50 188Q113 221 148.50 238Q184 255 232.50 266.50Q281 278 307 280.50Q333 283 359 285L359 323Q359 374 328.50 403Q298 432 237 432Q195 432 156.50 418.50Q118 405 100 392L82 378L82 421Q89 428 103.50 439Q118 450 166 468Q214 486 267 486Q350 486 391 446Q432 406 432 335M131 125Q131 91 156.50 68Q182 45 229 45Q294 45 359 95L359 245Q334 244 304 239.50Q274 235 230.50 223Q187 211 159 185.50Q131 160 131 125M137 582L256 719L277 719L397 582L376 561L267 656L158 561L137 582Z"  horiz-adv-x="544" vert-adv-y="1000"  />

      
      <glyph glyph-name="unie3" unicode="&#xe3;" d="M432 335L432 86Q432 47 466 47Q478 47 493 52Q508 57 516 62L525 67L525 23Q489-6 434-6Q367-6 360 56Q292-6 197-6Q129-6 93.50 28.50Q58 63 58 113Q58 155 85.50 188Q113 221 148.50 238Q184 255 232.50 266.50Q281 278 307 280.50Q333 283 359 285L359 323Q359 374 328.50 403Q298 432 237 432Q195 432 156.50 418.50Q118 405 100 392L82 378L82 421Q89 428 103.50 439Q118 450 166 468Q214 486 267 486Q350 486 391 446Q432 406 432 335M131 125Q131 91 156.50 68Q182 45 229 45Q294 45 359 95L359 245Q334 244 304 239.50Q274 235 230.50 223Q187 211 159 185.50Q131 160 131 125M138 584L117 605Q118 608 120.50 612.50Q123 617 131 628.50Q139 640 149 649Q159 658 175 665Q191 672 209 672Q237 672 271.50 650.50Q306 629 326 629Q345 629 359.50 639Q374 649 380 659L385 669L406 649Q405 646 402.50 641.50Q400 637 392 625.50Q384 614 374 605Q364 596 347.50 589Q331 582 313 582Q285 582 250.50 603.50Q216 625 196 625Q177 625 162.50 614.50Q148 604 143 594L138 584Z"  horiz-adv-x="544" vert-adv-y="1000"  />

      
      <glyph glyph-name="unie4" unicode="&#xe4;" d="M432 335L432 86Q432 47 466 47Q478 47 493 52Q508 57 516 62L525 67L525 23Q489-6 434-6Q367-6 360 56Q292-6 197-6Q129-6 93.50 28.50Q58 63 58 113Q58 155 85.50 188Q113 221 148.50 238Q184 255 232.50 266.50Q281 278 307 280.50Q333 283 359 285L359 323Q359 374 328.50 403Q298 432 237 432Q195 432 156.50 418.50Q118 405 100 392L82 378L82 421Q89 428 103.50 439Q118 450 166 468Q214 486 267 486Q350 486 391 446Q432 406 432 335M131 125Q131 91 156.50 68Q182 45 229 45Q294 45 359 95L359 245Q334 244 304 239.50Q274 235 230.50 223Q187 211 159 185.50Q131 160 131 125M130.50 599.50Q130.50 599.50 124.75 605.25Q119 611 119 628Q119 645 130.50 656Q142 667 159 667Q176 667 187 655.50Q198 644 198 628Q198 611 187 599.50Q176 588 159 588Q142 588 130.50 599.50M322 628Q322 644 333.50 655.50Q345 667 362 667Q378 667 389.50 655.50Q401 644 401 628Q401 611 390 599.50Q379 588 362 588Q345 588 333.50 599.50Q322 611 322 628Z"  horiz-adv-x="544" vert-adv-y="1000"  />

      
      <glyph glyph-name="unie5" unicode="&#xe5;" d="M432 335L432 86Q432 47 466 47Q478 47 493 52Q508 57 516 62L525 67L525 23Q489-6 434-6Q367-6 360 56Q292-6 197-6Q129-6 93.50 28.50Q58 63 58 113Q58 155 85.50 188Q113 221 148.50 238Q184 255 232.50 266.50Q281 278 307 280.50Q333 283 359 285L359 323Q359 374 328.50 403Q298 432 237 432Q195 432 156.50 418.50Q118 405 100 392L82 378L82 421Q89 428 103.50 439Q118 450 166 468Q214 486 267 486Q350 486 391 446Q432 406 432 335M131 125Q131 91 156.50 68Q182 45 229 45Q294 45 359 95L359 245Q334 244 304 239.50Q274 235 230.50 223Q187 211 159 185.50Q131 160 131 125M172 635Q172 673 199.50 699.50Q227 726 265 726Q302 726 326.50 702Q351 678 351 642Q351 605 323.50 578Q296 551 258 551Q221 551 196.50 575.50Q172 600 172 635M213 641Q213 619 227.50 604.50Q242 590 263 590Q283 590 296.50 603.50Q310 617 310 637Q310 659 295.50 673.50Q281 688 260 688Q240 688 226.50 674.50Q213 661 213 641Z"  horiz-adv-x="544" vert-adv-y="1000"  />

      
      <glyph glyph-name="unie6" unicode="&#xe6;" d="M416 229Q421 146 473.50 98.50Q526 51 613 51Q661 51 705 64.50Q749 78 769 92L789 106L789 62Q786 59 780.50 54.50Q775 50 756.50 38.50Q738 27 717 18Q696 9 662.50 1.50Q629-6 594-6Q466-6 395 78Q381 63 360 47Q339 31 293 12.50Q247-6 199-6Q129-6 93.50 28.50Q58 63 58 112Q58 153 83.50 184Q109 215 143.50 231.50Q178 248 222.50 259Q267 270 294 273Q321 276 344 277Q348 302 360 331Q358 378 326.50 405Q295 432 237 432Q195 432 156.50 418.50Q118 405 100 392L82 378L82 421Q89 428 103.50 439Q118 450 166 468Q214 486 267 486Q378 486 414 413Q489 486 598 486Q699 486 752 421.50Q805 357 805 242L782 229L416 229M590 435Q520 435 472.50 390.50Q425 346 417 274L739 274Q731 352 692.50 393.50Q654 435 590 435M131 125Q131 91 157 68Q183 45 229 45Q310 45 375 106Q341 162 341 233L341 237Q314 235 286.50 230.50Q259 226 219.50 215Q180 204 155.50 180.50Q131 157 131 125Z"  horiz-adv-x="862" vert-adv-y="1000"  />

      
      <glyph glyph-name="unie7" unicode="&#xe7;" d="M252-87L266-4Q166 5 107.50 70Q49 135 49 232Q49 341 120.50 413.50Q192 486 300 486Q390 486 444.50 435Q499 384 499 300L433 300Q433 361 394 398Q355 435 293 435Q217 435 171 382Q125 329 125 247Q125 157 176 104Q227 51 318 51Q364 51 406.50 64.50Q449 78 468 92L488 106L488 61Q481 54 467 43Q453 32 405.50 13.50Q358-5 305-6L296-58Q331-54 353-69.50Q375-85 375-115Q375-149 348-170Q321-191 281-191Q258-191 237.50-182.50Q217-174 208-166L200-158L221-132Q245-159 285-159Q307-159 319.50-148.50Q332-138 332-120Q332-103 319.50-93Q307-83 285-83L252-87Z"  horiz-adv-x="552" vert-adv-y="1000"  />

      
      <glyph glyph-name="unie8" unicode="&#xe8;" d="M125 229Q130 146 182.50 98.50Q235 51 322 51Q370 51 413.50 64.50Q457 78 477 92L497 106L497 62Q494 59 488.50 54.50Q483 50 464.50 38.50Q446 27 425 18Q404 9 370.50 1.50Q337-6 302-6Q188-6 118.50 61.50Q49 129 49 233Q49 341 123 413.50Q197 486 307 486Q407 486 460.50 421.50Q514 357 514 242L490 229L125 229M298 435Q228 435 181 390.50Q134 346 126 274L447 274Q439 352 400.50 393.50Q362 435 298 435M230 723L350 582L328 561L182 681L230 723Z"  horiz-adv-x="571" vert-adv-y="1000"  />

      
      <glyph glyph-name="unie9" unicode="&#xe9;" d="M125 229Q130 146 182.50 98.50Q235 51 322 51Q370 51 413.50 64.50Q457 78 477 92L497 106L497 62Q494 59 488.50 54.50Q483 50 464.50 38.50Q446 27 425 18Q404 9 370.50 1.50Q337-6 302-6Q188-6 118.50 61.50Q49 129 49 233Q49 341 123 413.50Q197 486 307 486Q407 486 460.50 421.50Q514 357 514 242L490 229L125 229M298 435Q228 435 181 390.50Q134 346 126 274L447 274Q439 352 400.50 393.50Q362 435 298 435M242 582L362 723L410 681L263 561L242 582Z"  horiz-adv-x="571" vert-adv-y="1000"  />

      
      <glyph glyph-name="uniea" unicode="&#xea;" d="M125 229Q130 146 182.50 98.50Q235 51 322 51Q370 51 413.50 64.50Q457 78 477 92L497 106L497 62Q494 59 488.50 54.50Q483 50 464.50 38.50Q446 27 425 18Q404 9 370.50 1.50Q337-6 302-6Q188-6 118.50 61.50Q49 129 49 233Q49 341 123 413.50Q197 486 307 486Q407 486 460.50 421.50Q514 357 514 242L490 229L125 229M298 435Q228 435 181 390.50Q134 346 126 274L447 274Q439 352 400.50 393.50Q362 435 298 435M165 582L285 719L306 719L426 582L405 561L295 656L187 561L165 582Z"  horiz-adv-x="571" vert-adv-y="1000"  />

      
      <glyph glyph-name="unieb" unicode="&#xeb;" d="M125 229Q130 146 182.50 98.50Q235 51 322 51Q370 51 413.50 64.50Q457 78 477 92L497 106L497 62Q494 59 488.50 54.50Q483 50 464.50 38.50Q446 27 425 18Q404 9 370.50 1.50Q337-6 302-6Q188-6 118.50 61.50Q49 129 49 233Q49 341 123 413.50Q197 486 307 486Q407 486 460.50 421.50Q514 357 514 242L490 229L125 229M298 435Q228 435 181 390.50Q134 346 126 274L447 274Q439 352 400.50 393.50Q362 435 298 435M149 628Q149 644 160.50 655.50Q172 667 189 667Q206 667 217 655.50Q228 644 228 628Q228 611 217 599.50Q206 588 189 588Q172 588 160.50 599.50Q149 611 149 628M353 628Q353 644 364.50 655.50Q376 667 392 667Q408 667 419.50 655.50Q431 644 431 628Q431 611 420 599.50Q409 588 392 588Q375 588 364 599.50Q353 611 353 628Z"  horiz-adv-x="571" vert-adv-y="1000"  />

      
      <glyph glyph-name="uniec" unicode="&#xec;" d="M60 723L180 582L158 561L12 681L60 723M90 0L90 480L154 480L163 457L163 0L90 0Z"  horiz-adv-x="252" vert-adv-y="1000"  />

      
      <glyph glyph-name="unied" unicode="&#xed;" d="M72 582L192 723L240 681L94 561L72 582M90 0L90 480L154 480L163 457L163 0L90 0Z"  horiz-adv-x="252" vert-adv-y="1000"  />

      
      <glyph glyph-name="uniee" unicode="&#xee;" d="M90 0L90 480L154 480L163 457L163 0L90 0M-4 582L116 719L137 719L257 582L235 561L126 656L17 561L-4 582Z"  horiz-adv-x="252" vert-adv-y="1000"  />

      
      <glyph glyph-name="unief" unicode="&#xef;" d="M90 0L90 480L154 480L163 457L163 0L90 0M-4 628Q-4 644 7 655.50Q18 667 35 667Q52 667 63 655.50Q74 644 74 628Q74 611 63 599.50Q52 588 35 588Q18 588 7 599.50Q-4 611-4 628M178 628Q178 644 189.50 655.50Q201 667 218 667Q234 667 245.50 655.50Q257 644 257 628Q257 611 246 599.50Q235 588 218 588Q201 588 189.50 599.50Q178 611 178 628Z"  horiz-adv-x="252" vert-adv-y="1000"  />

      
      <glyph glyph-name="unif0" unicode="&#xf0;" d="M257 547L228 576L296 644Q260 666 221 681Q182 696 162 700L141 703L175 756Q255 744 341 689L408 756L437 727L376 666Q555 528 555 263Q555 140 481 67Q407-6 294-6Q189-6 119 62.50Q49 131 49 233Q49 340 125 413Q201 486 310 486Q363 486 407 462Q451 438 477 397Q440 536 331 621L257 547M125 248Q125 162 177.50 103.50Q230 45 307 45Q381 45 430.50 98.50Q480 152 480 232Q480 318 427 376.50Q374 435 297 435Q223 435 174 381.50Q125 328 125 248Z"  horiz-adv-x="605" vert-adv-y="1000"  />

      
      <glyph glyph-name="unif1" unicode="&#xf1;" d="M154 480L162 432Q230 486 330 486Q420 486 469 436Q518 386 518 301L518 0L445 0L445 289Q445 357 406.50 396Q368 435 299 435Q223 435 163 393L163 0L90 0L90 480L154 480M178 584L158 605Q159 608 161.50 612.50Q164 617 172 628.50Q180 640 189.50 649Q199 658 215 665Q231 672 249 672Q277 672 311.50 650.50Q346 629 366 629Q385 629 400 639Q415 649 420 659L426 669L446 649Q445 646 442.50 641.50Q440 637 432 625.50Q424 614 414 605Q404 596 387.50 589Q371 582 353 582Q325 582 290.50 603.50Q256 625 236 625Q218 625 203.50 614.50Q189 604 184 594L178 584Z"  horiz-adv-x="604" vert-adv-y="1000"  />

      
      <glyph glyph-name="unif2" unicode="&#xf2;" d="M49 233Q49 340 125 413Q201 486 310 486Q415 486 485 417.50Q555 349 555 247Q555 140 479.50 67Q404-6 294-6Q189-6 119 62.50Q49 131 49 233M125 248Q125 162 177.50 103.50Q230 45 307 45Q381 45 430.50 98.50Q480 152 480 232Q480 318 427 376.50Q374 435 297 435Q223 435 174 381.50Q125 328 125 248M236 723L356 582L334 561L188 681L236 723Z"  horiz-adv-x="605" vert-adv-y="1000"  />

      
      <glyph glyph-name="unif3" unicode="&#xf3;" d="M49 233Q49 340 125 413Q201 486 310 486Q415 486 485 417.50Q555 349 555 247Q555 140 479.50 67Q404-6 294-6Q189-6 119 62.50Q49 131 49 233M125 248Q125 162 177.50 103.50Q230 45 307 45Q381 45 430.50 98.50Q480 152 480 232Q480 318 427 376.50Q374 435 297 435Q223 435 174 381.50Q125 328 125 248M248 582L368 723L416 681L269 561L248 582Z"  horiz-adv-x="605" vert-adv-y="1000"  />

      
      <glyph glyph-name="unif4" unicode="&#xf4;" d="M49 233Q49 340 125 413Q201 486 310 486Q415 486 485 417.50Q555 349 555 247Q555 140 479.50 67Q404-6 294-6Q189-6 119 62.50Q49 131 49 233M125 248Q125 162 177.50 103.50Q230 45 307 45Q381 45 430.50 98.50Q480 152 480 232Q480 318 427 376.50Q374 435 297 435Q223 435 174 381.50Q125 328 125 248M172 582L292 719L313 719L433 582L411 561L302 656L193 561L172 582Z"  horiz-adv-x="605" vert-adv-y="1000"  />

      
      <glyph glyph-name="unif5" unicode="&#xf5;" d="M49 233Q49 340 125 413Q201 486 310 486Q415 486 485 417.50Q555 349 555 247Q555 140 479.50 67Q404-6 294-6Q189-6 119 62.50Q49 131 49 233M125 248Q125 162 177.50 103.50Q230 45 307 45Q381 45 430.50 98.50Q480 152 480 232Q480 318 427 376.50Q374 435 297 435Q223 435 174 381.50Q125 328 125 248M179 584L158 605Q159 608 161.50 612.50Q164 617 172 628.50Q180 640 189.50 649Q199 658 215.50 665Q232 672 250 672Q278 672 312 650.50Q346 629 366 629Q385 629 400 639Q415 649 420 659L426 669L447 649Q446 646 443.50 641.50Q441 637 432.50 625.50Q424 614 414.50 605Q405 596 388.50 589Q372 582 354 582Q326 582 291 603.50Q256 625 236 625Q218 625 203.50 614.50Q189 604 184 594L179 584Z"  horiz-adv-x="605" vert-adv-y="1000"  />

      
      <glyph glyph-name="unif6" unicode="&#xf6;" d="M49 233Q49 340 125 413Q201 486 310 486Q415 486 485 417.50Q555 349 555 247Q555 140 479.50 67Q404-6 294-6Q189-6 119 62.50Q49 131 49 233M125 248Q125 162 177.50 103.50Q230 45 307 45Q381 45 430.50 98.50Q480 152 480 232Q480 318 427 376.50Q374 435 297 435Q223 435 174 381.50Q125 328 125 248M161 628Q161 644 172.50 655.50Q184 667 201 667Q218 667 229 655.50Q240 644 240 628Q240 611 229 599.50Q218 588 201 588Q184 588 172.50 599.50Q161 611 161 628M365 628Q365 644 376.50 655.50Q388 667 404 667Q420 667 431.50 655.50Q443 644 443 628Q443 611 432 599.50Q421 588 404 588Q387 588 376 599.50Q365 611 365 628Z"  horiz-adv-x="605" vert-adv-y="1000"  />

      
      <glyph glyph-name="unif7" unicode="&#xf7;" d="M94 329L94 371L463 371L463 329L94 329M252.50 177Q252.50 177 247.25 182.50Q242 188 242 203Q242 218 252.50 228.50Q263 239 278 239Q294 239 304.50 228.50Q315 218 315 203Q315 188 304.50 177Q294 166 278 166Q263 166 252.50 177M252.50 471.50Q252.50 471.50 247.25 476.75Q242 482 242 497Q242 512 252.50 523Q263 534 278 534Q294 534 304.50 523Q315 512 315 497Q315 482 304.50 471.50Q294 461 278 461Q263 461 252.50 471.50Z"  horiz-adv-x="557" vert-adv-y="1000"  />

      
      <glyph glyph-name="unif8" unicode="&#xf8;" d="M49 233Q49 340 125 413Q201 486 310 486Q362 486 409 467L433 508L469 486L446 447Q497 415 526 362.50Q555 310 555 247Q555 140 479.50 67Q404-6 294-6Q242-6 195 13L171-28L135-6L157 32Q107 64 78 116.50Q49 169 49 233M481 231Q481 331 414 391L224 64Q264 43 307 43Q382 43 431.50 97Q481 151 481 231M123 249Q123 149 190 88L379 415Q341 437 297 437Q223 437 173 383Q123 329 123 249Z"  horiz-adv-x="605" vert-adv-y="1000"  />

      
      <glyph glyph-name="unif9" unicode="&#xf9;" d="M450 0L443 48Q375-6 272-6Q182-6 134 40.50Q86 87 86 174L86 480L151 480L159 429L159 186Q159 116 196.50 80.50Q234 45 303 45Q382 45 442 87L442 480L506 480L514 429L514 0L450 0M236 723L356 582L334 561L188 681L236 723Z"  horiz-adv-x="604" vert-adv-y="1000"  />

      
      <glyph glyph-name="unifa" unicode="&#xfa;" d="M450 0L443 48Q375-6 272-6Q182-6 134 40.50Q86 87 86 174L86 480L151 480L159 429L159 186Q159 116 196.50 80.50Q234 45 303 45Q382 45 442 87L442 480L506 480L514 429L514 0L450 0M248 582L368 723L416 681L269 561L248 582Z"  horiz-adv-x="604" vert-adv-y="1000"  />

      
      <glyph glyph-name="unifb" unicode="&#xfb;" d="M450 0L443 48Q375-6 272-6Q182-6 134 40.50Q86 87 86 174L86 480L151 480L159 429L159 186Q159 116 196.50 80.50Q234 45 303 45Q382 45 442 87L442 480L506 480L514 429L514 0L450 0M172 582L292 719L313 719L432 582L411 561L302 656L193 561L172 582Z"  horiz-adv-x="604" vert-adv-y="1000"  />

      
      <glyph glyph-name="unifc" unicode="&#xfc;" d="M450 0L443 48Q375-6 272-6Q182-6 134 40.50Q86 87 86 174L86 480L151 480L159 429L159 186Q159 116 196.50 80.50Q234 45 303 45Q382 45 442 87L442 480L506 480L514 429L514 0L450 0M364 628Q364 644 375.50 655.50Q387 667 404 667Q420 667 431.50 655.50Q443 644 443 628Q443 611 432 599.50Q421 588 404 588Q387 588 375.50 599.50Q364 611 364 628M161 628Q161 644 172.50 655.50Q184 667 201 667Q218 667 229 655.50Q240 644 240 628Q240 611 229 599.50Q218 588 201 588Q184 588 172.50 599.50Q161 611 161 628Z"  horiz-adv-x="604" vert-adv-y="1000"  />

      
      <glyph glyph-name="unifd" unicode="&#xfd;" d="M49-247L49-176Q71-188 100-188Q133-188 160-157Q187-126 228-40L249 5L19 480L99 480L287 86L469 480L523 480L270-63Q220-169 180-212.50Q140-256 90-256Q78-256 67.50-254Q57-252 53-250L49-247M221 582L341 723L389 681L243 561L221 582Z"  horiz-adv-x="543" vert-adv-y="1000"  />

      
      <glyph glyph-name="unife" unicode="&#xfe;" d="M154 750L163 727L163 433Q229 486 328 486Q432 486 495.50 419.50Q559 353 559 252Q559 141 485 67.50Q411-6 304-6Q217-6 163 42L163-250L90-250L90 750L154 750M298 435Q223 435 163 393L163 149Q171 101 210.50 73Q250 45 307 45Q385 45 434 98Q483 151 483 234Q483 323 431.50 379Q380 435 298 435Z"  horiz-adv-x="605" vert-adv-y="1000"  />

      
      <glyph glyph-name="uniff" unicode="&#xff;" d="M49-247L49-176Q71-188 100-188Q133-188 160-157Q187-126 228-40L249 5L19 480L99 480L287 86L469 480L523 480L270-63Q220-169 180-212.50Q140-256 90-256Q78-256 67.50-254Q57-252 53-250L49-247M146.50 599.50Q146.50 599.50 140.75 605.25Q135 611 135 628Q135 645 146.50 656Q158 667 175 667Q192 667 203 655.50Q214 644 214 628Q214 611 203 599.50Q192 588 175 588Q158 588 146.50 599.50M338 628Q338 644 349.50 655.50Q361 667 378 667Q394 667 405.50 655.50Q417 644 417 628Q417 611 406 599.50Q395 588 378 588Q361 588 349.50 599.50Q338 611 338 628Z"  horiz-adv-x="543" vert-adv-y="1000"  />

      
      <glyph glyph-name="uni0100" unicode="&#x0100;" d="M177 192L86 0L31 0L371 705L396 705L741 0L657 0L566 192L177 192M371 601L199 239L543 239L371 601M269 801L269 845L497 845L497 801L269 801Z"  horiz-adv-x="772" vert-adv-y="1000"  />

      
      <glyph glyph-name="uni0101" unicode="&#x0101;" d="M432 335L432 86Q432 47 466 47Q478 47 493 52Q508 57 516 62L525 67L525 23Q489-6 434-6Q367-6 360 56Q292-6 197-6Q129-6 93.50 28.50Q58 63 58 113Q58 155 85.50 188Q113 221 148.50 238Q184 255 232.50 266.50Q281 278 307 280.50Q333 283 359 285L359 323Q359 374 328.50 403Q298 432 237 432Q195 432 156.50 418.50Q118 405 100 392L82 378L82 421Q89 428 103.50 439Q118 450 166 468Q214 486 267 486Q350 486 391 446Q432 406 432 335M131 125Q131 91 156.50 68Q182 45 229 45Q294 45 359 95L359 245Q334 244 304 239.50Q274 235 230.50 223Q187 211 159 185.50Q131 160 131 125M149 604L149 649L378 649L378 604L149 604Z"  horiz-adv-x="544" vert-adv-y="1000"  />

      
      <glyph glyph-name="uni0102" unicode="&#x0102;" d="M177 192L86 0L31 0L371 705L396 705L741 0L657 0L566 192L177 192M371 601L199 239L543 239L371 601M465 892L519 892Q519 841 477.50 805.50Q436 770 377 770Q320 770 283.50 804Q247 838 247 892L304 892Q304 860 328.50 837Q353 814 387 814Q420 814 442.50 836Q465 858 465 892Z"  horiz-adv-x="772" vert-adv-y="1000"  />

      
      <glyph glyph-name="uni0103" unicode="&#x0103;" d="M432 335L432 86Q432 47 466 47Q478 47 493 52Q508 57 516 62L525 67L525 23Q489-6 434-6Q367-6 360 56Q292-6 197-6Q129-6 93.50 28.50Q58 63 58 113Q58 155 85.50 188Q113 221 148.50 238Q184 255 232.50 266.50Q281 278 307 280.50Q333 283 359 285L359 323Q359 374 328.50 403Q298 432 237 432Q195 432 156.50 418.50Q118 405 100 392L82 378L82 421Q89 428 103.50 439Q118 450 166 468Q214 486 267 486Q350 486 391 446Q432 406 432 335M131 125Q131 91 156.50 68Q182 45 229 45Q294 45 359 95L359 245Q334 244 304 239.50Q274 235 230.50 223Q187 211 159 185.50Q131 160 131 125M342 695L396 695Q396 644 354.50 608.50Q313 573 254 573Q197 573 160.50 607Q124 641 124 695L181 695Q181 663 205.50 640.50Q230 618 264 618Q297 618 319.50 640Q342 662 342 695Z"  horiz-adv-x="544" vert-adv-y="1000"  />

      
      <glyph glyph-name="uni0104" unicode="&#x0104;" d="M177 192L86 0L31 0L371 705L396 705L741 0L722 0Q715-6 705.50-16Q696-26 679.50-53.50Q663-81 663-104Q663-124 675-135.50Q687-147 706-147Q721-147 734.50-140.50Q748-134 754-127L760-120L777-138Q773-143 766.50-150.50Q760-158 737-170Q714-182 689-182Q657-182 637.50-163.50Q618-145 618-113Q618-102 620.50-90.50Q623-79 627.50-70Q632-61 638-52Q644-43 650.50-36.50Q657-30 663-24Q669-18 674.50-13.50Q680-9 684.50-6Q689-3 691-2L693 0L657 0L566 192L177 192M371 601L199 239L543 239L371 601Z"  horiz-adv-x="772" vert-adv-y="1000"  />

      
      <glyph glyph-name="uni0105" unicode="&#x0105;" d="M371-110Q371-54 434-6Q367-6 360 56Q292-6 197-6Q129-6 93.50 28.50Q58 63 58 113Q58 155 85.50 188Q113 221 148.50 238Q184 255 232.50 266.50Q281 278 307 280.50Q333 283 359 285L359 323Q359 374 328.50 403Q298 432 237 432Q195 432 156.50 418.50Q118 405 100 392L82 378L82 421Q89 428 103.50 439Q118 450 166 468Q214 486 267 486Q350 486 391 446Q432 406 432 335L432 86Q432 47 466 47Q478 47 493 52Q508 57 516 62L525 67L525 23Q503 6 470-2Q417-50 417-101Q417-122 428.50-133Q440-144 459-144Q474-144 487.50-137.50Q501-131 507-124L513-118L531-135Q527-140 520.50-147.50Q514-155 491-167Q468-179 443-179Q410-179 390.50-160.50Q371-142 371-110M131 125Q131 91 156.50 68Q182 45 229 45Q294 45 359 95L359 245Q334 244 304 239.50Q274 235 230.50 223Q187 211 159 185.50Q131 160 131 125Z"  horiz-adv-x="544" vert-adv-y="1000"  />

      
      <glyph glyph-name="uni0106" unicode="&#x0106;" d="M704 437L631 437Q631 532 570 592Q509 652 407 652Q286 652 212 569Q138 486 138 357Q138 219 219.50 136.50Q301 54 441 54Q510 54 572 74.50Q634 95 662 116L690 136L690 91Q686 87 678.50 80.50Q671 74 645 57.50Q619 41 589.50 28Q560 15 512.50 4.50Q465-6 415-6Q253-6 157 91Q61 188 61 339Q61 496 162.50 601Q264 706 419 706Q548 706 626 632Q704 558 704 437M348 779L468 919L516 877L370 757L348 779Z"  horiz-adv-x="772" vert-adv-y="1000"  />

      
      <glyph glyph-name="uni0107" unicode="&#x0107;" d="M499 300L433 300Q433 361 394 398Q355 435 293 435Q217 435 171 382Q125 329 125 247Q125 157 176 104Q227 51 318 51Q364 51 406.50 64.50Q449 78 468 92L488 106L488 61Q485 58 480 53.50Q475 49 457 37.50Q439 26 418.50 17Q398 8 365 1Q332-6 297-6Q184-6 116.50 61Q49 128 49 232Q49 341 120.50 413.50Q192 486 300 486Q390 486 444.50 435Q499 384 499 300M232 582L352 723L400 681L253 561L232 582Z"  horiz-adv-x="552" vert-adv-y="1000"  />

      
      <glyph glyph-name="uni0108" unicode="&#x0108;" d="M704 437L631 437Q631 532 570 592Q509 652 407 652Q286 652 212 569Q138 486 138 357Q138 219 219.50 136.50Q301 54 441 54Q510 54 572 74.50Q634 95 662 116L690 136L690 91Q686 87 678.50 80.50Q671 74 645 57.50Q619 41 589.50 28Q560 15 512.50 4.50Q465-6 415-6Q253-6 157 91Q61 188 61 339Q61 496 162.50 601Q264 706 419 706Q548 706 626 632Q704 558 704 437M272 772L391 908L412 908L532 772L511 750L402 845L293 750L272 772Z"  horiz-adv-x="772" vert-adv-y="1000"  />

      
      <glyph glyph-name="uni0109" unicode="&#x0109;" d="M499 300L433 300Q433 361 394 398Q355 435 293 435Q217 435 171 382Q125 329 125 247Q125 157 176 104Q227 51 318 51Q364 51 406.50 64.50Q449 78 468 92L488 106L488 61Q485 58 480 53.50Q475 49 457 37.50Q439 26 418.50 17Q398 8 365 1Q332-6 297-6Q184-6 116.50 61Q49 128 49 232Q49 341 120.50 413.50Q192 486 300 486Q390 486 444.50 435Q499 384 499 300M156 582L276 719L296 719L416 582L395 561L286 656L177 561L156 582Z"  horiz-adv-x="552" vert-adv-y="1000"  />

      
      <glyph glyph-name="uni010A" unicode="&#x010A;" d="M704 437L631 437Q631 532 570 592Q509 652 407 652Q286 652 212 569Q138 486 138 357Q138 219 219.50 136.50Q301 54 441 54Q510 54 572 74.50Q634 95 662 116L690 136L690 91Q686 87 678.50 80.50Q671 74 645 57.50Q619 41 589.50 28Q560 15 512.50 4.50Q465-6 415-6Q253-6 157 91Q61 188 61 339Q61 496 162.50 601Q264 706 419 706Q548 706 626 632Q704 558 704 437M359 844Q359 861 371.50 873.50Q384 886 402 886Q419 886 431.50 873.50Q444 861 444 844Q444 826 431.50 813.50Q419 801 402 801Q384 801 371.50 813.50Q359 826 359 844Z"  horiz-adv-x="772" vert-adv-y="1000"  />

      
      <glyph glyph-name="uni010B" unicode="&#x010B;" d="M499 300L433 300Q433 361 394 398Q355 435 293 435Q217 435 171 382Q125 329 125 247Q125 157 176 104Q227 51 318 51Q364 51 406.50 64.50Q449 78 468 92L488 106L488 61Q485 58 480 53.50Q475 49 457 37.50Q439 26 418.50 17Q398 8 365 1Q332-6 297-6Q184-6 116.50 61Q49 128 49 232Q49 341 120.50 413.50Q192 486 300 486Q390 486 444.50 435Q499 384 499 300M248 648Q248 665 260.50 677.50Q273 690 291 690Q309 690 321 677.50Q333 665 333 648Q333 630 321 617.50Q309 605 291 605Q273 605 260.50 617.50Q248 630 248 648Z"  horiz-adv-x="552" vert-adv-y="1000"  />

      
      <glyph glyph-name="uni010C" unicode="&#x010C;" d="M704 437L631 437Q631 532 570 592Q509 652 407 652Q286 652 212 569Q138 486 138 357Q138 219 219.50 136.50Q301 54 441 54Q510 54 572 74.50Q634 95 662 116L690 136L690 91Q686 87 678.50 80.50Q671 74 645 57.50Q619 41 589.50 28Q560 15 512.50 4.50Q465-6 415-6Q253-6 157 91Q61 188 61 339Q61 496 162.50 601Q264 706 419 706Q548 706 626 632Q704 558 704 437M532 894L412 757L391 757L272 894L293 915L402 820L511 915L532 894Z"  horiz-adv-x="772" vert-adv-y="1000"  />

      
      <glyph glyph-name="uni010D" unicode="&#x010D;" d="M499 300L433 300Q433 361 394 398Q355 435 293 435Q217 435 171 382Q125 329 125 247Q125 157 176 104Q227 51 318 51Q364 51 406.50 64.50Q449 78 468 92L488 106L488 61Q485 58 480 53.50Q475 49 457 37.50Q439 26 418.50 17Q398 8 365 1Q332-6 297-6Q184-6 116.50 61Q49 128 49 232Q49 341 120.50 413.50Q192 486 300 486Q390 486 444.50 435Q499 384 499 300M416 697L296 561L276 561L156 697L177 719L286 624L395 719L416 697Z"  horiz-adv-x="552" vert-adv-y="1000"  />

      
      <glyph glyph-name="uni010E" unicode="&#x010E;" d="M101 0L101 700L364 700Q512 700 610 602Q708 504 708 359Q708 208 601.50 104Q495 0 342 0L101 0M342 654L177 654L177 46L363 46Q478 46 554.50 128Q631 210 631 334Q631 469 547.50 561.50Q464 654 342 654M498 894L378 757L357 757L237 894L259 915L368 820L477 915L498 894Z"  horiz-adv-x="769" vert-adv-y="1000"  />

      
      <glyph glyph-name="uni010F" unicode="&#x010F;" d="M450 0L443 48Q375-6 277-6Q173-6 109.50 60.50Q46 127 46 228Q46 339 120 412.50Q194 486 301 486Q387 486 442 437L442 750L507 750L515 727L515 0L450 0M307 45Q385 45 442 87L442 331Q434 378 394 406.50Q354 435 298 435Q219 435 170 382Q121 329 121 246Q121 157 172.50 101Q224 45 307 45M591 596L591 618Q596 620 603.50 625Q611 630 624.50 649.50Q638 669 640 694Q611 696 611 724Q611 756 645 756Q677 756 677 712Q677 687 668 666Q659 645 646.50 632.50Q634 620 621.50 611.50Q609 603 600 600L591 596Z"  horiz-adv-x="668" vert-adv-y="1000"  />

      
      <glyph glyph-name="uni0110" unicode="&#x0110;" d="M20 338L20 379L129 379L129 700L392 700Q540 700 638 602Q736 504 736 359Q736 208 630 104Q524 0 371 0L129 0L129 338L20 338M371 654L205 654L205 379L385 379L385 338L205 338L205 46L391 46Q506 46 582.50 128Q659 210 659 334Q659 468 575.50 561Q492 654 371 654Z"  horiz-adv-x="797" vert-adv-y="1000"  />

      
      <glyph glyph-name="uni0111" unicode="&#x0111;" d="M450 0L443 48Q375-6 277-6Q173-6 109.50 60.50Q46 127 46 228Q46 339 120 412.50Q194 486 301 486Q387 486 442 437L442 591L293 591L293 633L442 633L442 750L507 750L515 727L515 633L624 633L624 591L515 591L515 0L450 0M307 45Q385 45 442 87L442 331Q434 378 394 406.50Q354 435 298 435Q219 435 170 382Q121 329 121 246Q121 157 172.50 101Q224 45 307 45Z"  horiz-adv-x="643" vert-adv-y="1000"  />

      
      <glyph glyph-name="uni0112" unicode="&#x0112;" d="M466 334L177 337L177 46L512 51L512 0L101 0L101 700L507 700L507 649L177 653L177 381L466 384L466 334M197 801L197 845L425 845L425 801L197 801Z"  horiz-adv-x="575" vert-adv-y="1000"  />

      
      <glyph glyph-name="uni0113" unicode="&#x0113;" d="M125 229Q130 146 182.50 98.50Q235 51 322 51Q370 51 413.50 64.50Q457 78 477 92L497 106L497 62Q494 59 488.50 54.50Q483 50 464.50 38.50Q446 27 425 18Q404 9 370.50 1.50Q337-6 302-6Q188-6 118.50 61.50Q49 129 49 233Q49 341 123 413.50Q197 486 307 486Q407 486 460.50 421.50Q514 357 514 242L490 229L125 229M298 435Q228 435 181 390.50Q134 346 126 274L447 274Q439 352 400.50 393.50Q362 435 298 435M181 604L181 649L410 649L410 604L181 604Z"  horiz-adv-x="571" vert-adv-y="1000"  />

      
      <glyph glyph-name="uni0114" unicode="&#x0114;" d="M101 0L101 700L507 700L507 649L177 653L177 381L466 384L466 334L177 337L177 46L512 51L512 0L101 0M393 892L447 892Q447 841 405.50 805.50Q364 770 305 770Q248 770 211.50 804Q175 838 175 892L232 892Q232 860 256.50 837Q281 814 315 814Q348 814 370.50 836Q393 858 393 892Z"  horiz-adv-x="575" vert-adv-y="1000"  />

      
      <glyph glyph-name="uni0115" unicode="&#x0115;" d="M125 229Q130 146 182.50 98.50Q235 51 322 51Q370 51 413.50 64.50Q457 78 477 92L497 106L497 62Q494 59 488.50 54.50Q483 50 464.50 38.50Q446 27 425 18Q404 9 370.50 1.50Q337-6 302-6Q188-6 118.50 61.50Q49 129 49 233Q49 341 123 413.50Q197 486 307 486Q407 486 460.50 421.50Q514 357 514 242L490 229L125 229M298 435Q228 435 181 390.50Q134 346 126 274L447 274Q439 352 400.50 393.50Q362 435 298 435M372 695L427 695Q427 644 385.50 608.50Q344 573 285 573Q228 573 191.50 607Q155 641 155 695L212 695Q212 663 236.50 640.50Q261 618 295 618Q328 618 350 639.50Q372 661 372 695Z"  horiz-adv-x="571" vert-adv-y="1000"  />

      
      <glyph glyph-name="uni0116" unicode="&#x0116;" d="M466 334L177 337L177 46L512 51L512 0L101 0L101 700L507 700L507 649L177 653L177 381L466 384L466 334M268 844Q268 861 280.50 873.50Q293 886 311 886Q329 886 341.50 873.50Q354 861 354 844Q354 826 341.50 813.50Q329 801 311 801Q293 801 280.50 813.50Q268 826 268 844Z"  horiz-adv-x="575" vert-adv-y="1000"  />

      
      <glyph glyph-name="uni0117" unicode="&#x0117;" d="M125 229Q130 146 182.50 98.50Q235 51 322 51Q370 51 413.50 64.50Q457 78 477 92L497 106L497 62Q494 59 488.50 54.50Q483 50 464.50 38.50Q446 27 425 18Q404 9 370.50 1.50Q337-6 302-6Q188-6 118.50 61.50Q49 129 49 233Q49 341 123 413.50Q197 486 307 486Q407 486 460.50 421.50Q514 357 514 242L490 229L125 229M298 435Q228 435 181 390.50Q134 346 126 274L447 274Q439 352 400.50 393.50Q362 435 298 435M248 648Q248 665 260.50 677.50Q273 690 291 690Q309 690 321 677.50Q333 665 333 648Q333 630 321 617.50Q309 605 291 605Q273 605 260.50 617.50Q248 630 248 648Z"  horiz-adv-x="571" vert-adv-y="1000"  />

      
      <glyph glyph-name="uni0118" unicode="&#x0118;" d="M359-113Q359-102 361.50-90.50Q364-79 368.50-70Q373-61 379-52Q385-43 391.50-36.50Q398-30 404.50-24Q411-18 416.50-13.50Q422-9 426.50-6Q431-3 433-2L435 0L101 0L101 700L507 700L507 649L177 653L177 381L466 384L466 334L177 337L177 46L512 51L512 0L463 0Q457-6 447-16Q437-26 421-53.50Q405-81 405-104Q405-125 416.50-136Q428-147 447-147Q462-147 475.50-140.50Q489-134 495-127L501-120L519-138Q515-143 508.50-150.50Q502-158 479-170Q456-182 431-182Q398-182 378.50-163.50Q359-145 359-113Z"  horiz-adv-x="575" vert-adv-y="1000"  />

      
      <glyph glyph-name="uni0119" unicode="&#x0119;" d="M306-98Q306-44 359-1Q329-6 302-6Q188-6 118.50 61.50Q49 129 49 233Q49 341 123 413.50Q197 486 307 486Q407 486 460.50 421.50Q514 357 514 242L490 229L125 229Q130 146 182.50 98.50Q235 51 322 51Q370 51 413.50 64.50Q457 78 477 92L497 106L497 62Q463 30 404 10Q351-43 351-89Q351-132 394-132Q409-132 422.50-125.50Q436-119 442-112L448-106L465-123Q461-128 454.50-135.50Q448-143 425-155.50Q402-168 377-168Q344-168 325-149.50Q306-131 306-98M298 435Q228 435 181 390.50Q134 346 126 274L447 274Q439 352 400.50 393.50Q362 435 298 435Z"  horiz-adv-x="571" vert-adv-y="1000"  />

      
      <glyph glyph-name="uni011A" unicode="&#x011A;" d="M466 334L177 337L177 46L512 51L512 0L101 0L101 700L507 700L507 649L177 653L177 381L466 384L466 334M441 894L322 757L301 757L181 894L202 915L311 820L420 915L441 894Z"  horiz-adv-x="575" vert-adv-y="1000"  />

      
      <glyph glyph-name="uni011B" unicode="&#x011B;" d="M125 229Q130 146 182.50 98.50Q235 51 322 51Q370 51 413.50 64.50Q457 78 477 92L497 106L497 62Q494 59 488.50 54.50Q483 50 464.50 38.50Q446 27 425 18Q404 9 370.50 1.50Q337-6 302-6Q188-6 118.50 61.50Q49 129 49 233Q49 341 123 413.50Q197 486 307 486Q407 486 460.50 421.50Q514 357 514 242L490 229L125 229M298 435Q228 435 181 390.50Q134 346 126 274L447 274Q439 352 400.50 393.50Q362 435 298 435M426 697L306 561L285 561L165 697L187 719L296 624L405 719L426 697Z"  horiz-adv-x="571" vert-adv-y="1000"  />

      
      <glyph glyph-name="uni011C" unicode="&#x011C;" d="M697 457L624 457Q624 543 563.50 597.50Q503 652 404 652Q285 652 211.50 569Q138 486 138 358Q138 220 219.50 137Q301 54 443 54Q542 54 632 97L632 301L419 301L428 347L695 347L695 91Q691 87 683.50 80.50Q676 74 649.50 57.50Q623 41 593 28Q563 15 515.50 4.50Q468-6 417-6Q254-6 157.50 91Q61 188 61 340Q61 497 162 601.50Q263 706 417 706Q543 706 620 637.50Q697 569 697 457M275 779L395 915L416 915L536 779L515 757L406 852L297 757L275 779Z"  horiz-adv-x="786" vert-adv-y="1000"  />

      
      <glyph glyph-name="uni011D" unicode="&#x011D;" d="M17-114Q17-67 55.50-30Q94 7 160 27Q117 51 117 92Q117 136 168 163Q117 183 87 222.50Q57 262 57 312Q57 385 119 435.50Q181 486 269 486Q298 486 323 480L494 480L494 432L405 439Q458 392 458 323Q458 250 399.50 199Q341 148 254 148L247 148Q216 146 195.50 132.50Q175 119 175 99Q175 75 204 59Q233 43 275 43Q379 43 448 2Q517-39 517-100Q517-165 440.50-210.50Q364-256 253-256Q149-256 83-216Q17-176 17-114M89-103Q89-147 140.50-177.50Q192-208 269-208Q343-208 394-180Q445-152 445-111Q445-67 390.50-36.50Q336-6 258-6Q184-6 136.50-33.50Q89-61 89-103M126 322Q126 271 167 233.50Q208 196 267 196Q322 196 357 229.50Q392 263 392 313Q392 366 354 402.50Q316 439 258 439Q202 439 164 405.50Q126 372 126 322M134 582L254 719L275 719L395 582L373 561L264 656L156 561L134 582Z"  horiz-adv-x="536" vert-adv-y="1000"  />

      
      <glyph glyph-name="uni011E" unicode="&#x011E;" d="M697 457L624 457Q624 543 563.50 597.50Q503 652 404 652Q285 652 211.50 569Q138 486 138 358Q138 220 219.50 137Q301 54 443 54Q542 54 632 97L632 301L419 301L428 347L695 347L695 91Q691 87 683.50 80.50Q676 74 649.50 57.50Q623 41 593 28Q563 15 515.50 4.50Q468-6 417-6Q254-6 157.50 91Q61 188 61 340Q61 497 162 601.50Q263 706 417 706Q543 706 620 637.50Q697 569 697 457M487 892L542 892Q542 841 500.50 805.50Q459 770 400 770Q343 770 306.50 804Q270 838 270 892L327 892Q327 860 351.50 837Q376 814 410 814Q443 814 465 836Q487 858 487 892Z"  horiz-adv-x="786" vert-adv-y="1000"  />

      
      <glyph glyph-name="uni011F" unicode="&#x011F;" d="M17-114Q17-67 55.50-30Q94 7 160 27Q117 51 117 92Q117 136 168 163Q117 183 87 222.50Q57 262 57 312Q57 385 119 435.50Q181 486 269 486Q298 486 323 480L494 480L494 432L405 439Q458 392 458 323Q458 250 399.50 199Q341 148 254 148Q220 148 197.50 134.50Q175 121 175 99Q175 76 201.50 60.50Q228 45 267 43L275 43Q379 43 448 2Q517-39 517-100Q517-165 440.50-210.50Q364-256 253-256Q149-256 83-216Q17-176 17-114M89-103Q89-147 140.50-177.50Q192-208 269-208Q343-208 394-180Q445-152 445-111Q445-67 390.50-36.50Q336-6 258-6Q184-6 136.50-33.50Q89-61 89-103M126 322Q126 271 167 233.50Q208 196 267 196Q322 196 357 229.50Q392 263 392 313Q392 366 354 402.50Q316 439 258 439Q202 439 164 405.50Q126 372 126 322M346 695L400 695Q400 644 359 608.50Q318 573 259 573Q202 573 165.50 607Q129 641 129 695L186 695Q186 663 210 640.50Q234 618 268 618Q302 618 324 639.50Q346 661 346 695Z"  horiz-adv-x="536" vert-adv-y="1000"  />

      
      <glyph glyph-name="uni0120" unicode="&#x0120;" d="M697 457L624 457Q624 543 563.50 597.50Q503 652 404 652Q285 652 211.50 569Q138 486 138 358Q138 220 219.50 137Q301 54 443 54Q542 54 632 97L632 301L419 301L428 347L695 347L695 91Q691 87 683.50 80.50Q676 74 649.50 57.50Q623 41 593 28Q563 15 515.50 4.50Q468-6 417-6Q254-6 157.50 91Q61 188 61 340Q61 497 162 601.50Q263 706 417 706Q543 706 620 637.50Q697 569 697 457M363 844Q363 861 375.50 873.50Q388 886 406 886Q424 886 436 873.50Q448 861 448 844Q448 826 436 813.50Q424 801 406 801Q388 801 375.50 813.50Q363 826 363 844Z"  horiz-adv-x="786" vert-adv-y="1000"  />

      
      <glyph glyph-name="uni0121" unicode="&#x0121;" d="M17-114Q17-67 55.50-30Q94 7 160 27Q117 51 117 92Q117 136 168 163Q117 183 87 222.50Q57 262 57 312Q57 385 119 435.50Q181 486 269 486Q298 486 323 480L494 480L494 432L405 439Q458 392 458 323Q458 250 399.50 199Q341 148 254 148L247 148Q216 146 195.50 132.50Q175 119 175 99Q175 75 204 59Q233 43 275 43Q379 43 448 2Q517-39 517-100Q517-165 440.50-210.50Q364-256 253-256Q149-256 83-216Q17-176 17-114M89-103Q89-147 140.50-177.50Q192-208 269-208Q343-208 394-180Q445-152 445-111Q445-67 390.50-36.50Q336-6 258-6Q184-6 136.50-33.50Q89-61 89-103M126 322Q126 271 167 233.50Q208 196 267 196Q322 196 357 229.50Q392 263 392 313Q392 366 354 402.50Q316 439 258 439Q202 439 164 405.50Q126 372 126 322M222 648Q222 665 234.50 677.50Q247 690 265 690Q282 690 294.50 677.50Q307 665 307 648Q307 630 294.50 617.50Q282 605 265 605Q247 605 234.50 617.50Q222 630 222 648Z"  horiz-adv-x="536" vert-adv-y="1000"  />

      
      <glyph glyph-name="uni0122" unicode="&#x0122;" d="M697 457L624 457Q624 543 563.50 597.50Q503 652 404 652Q285 652 211.50 569Q138 486 138 358Q138 220 219.50 137Q301 54 443 54Q542 54 632 97L632 301L419 301L428 347L695 347L695 91Q691 87 683.50 80.50Q676 74 649.50 57.50Q623 41 593 28Q563 15 515.50 4.50Q468-6 417-6Q254-6 157.50 91Q61 188 61 340Q61 497 162 601.50Q263 706 417 706Q543 706 620 637.50Q697 569 697 457M360-222L360-199Q365-197 372-192Q379-187 392.50-167.50Q406-148 408-123Q380-121 380-93Q380-79 389-70Q398-61 413-61Q446-61 446-105Q446-145 424.50-174Q403-203 382-212L360-222Z"  horiz-adv-x="786" vert-adv-y="1000"  />

      
      <glyph glyph-name="uni0123" unicode="&#x0123;" d="M17-114Q17-67 55.50-30Q94 7 160 27Q117 51 117 92Q117 136 168 163Q117 183 87 222.50Q57 262 57 312Q57 385 119 435.50Q181 486 269 486Q298 486 323 480L494 480L494 432L405 439Q458 392 458 323Q458 250 399.50 199Q341 148 254 148Q220 148 197.50 134.50Q175 121 175 99Q175 75 204 59Q233 43 275 43Q379 43 448 2Q517-39 517-100Q517-165 440.50-210.50Q364-256 253-256Q149-256 83-216Q17-176 17-114M89-103Q89-147 140.50-177.50Q192-208 269-208Q343-208 394-180Q445-152 445-111Q445-67 390.50-36.50Q336-6 258-6Q184-6 136.50-33.50Q89-61 89-103M126 322Q126 271 167 233.50Q208 196 267 196Q322 196 357 229.50Q392 263 392 313Q392 366 354 402.50Q316 439 258 439Q202 439 164 405.50Q126 372 126 322M314 708L314 686Q309 684 301.50 679Q294 674 280.50 654.50Q267 635 265 610Q294 607 294 580Q294 565 285 556Q276 547 260 547Q228 547 228 592Q228 631 249.50 660Q271 689 292 698L314 708Z"  horiz-adv-x="536" vert-adv-y="1000"  />

      
      <glyph glyph-name="uni0124" unicode="&#x0124;" d="M177 336L177 0L101 0L101 700L177 700L177 382L635 382L635 700L710 700L710 0L635 0L635 336L177 336M275 779L395 915L416 915L536 779L514 757L405 852L297 757L275 779Z"  horiz-adv-x="812" vert-adv-y="1000"  />

      
      <glyph glyph-name="uni0125" unicode="&#x0125;" d="M90 0L90 750L154 750L163 727L163 434Q232 486 329 486Q420 486 469 436Q518 386 518 301L518 0L445 0L445 289Q445 357 406.50 396Q368 435 299 435Q223 435 163 393L163 0L90 0M-4 773L116 910L137 910L257 773L235 752L126 846L17 752L-4 773Z"  horiz-adv-x="604" vert-adv-y="1000"  />

      
      <glyph glyph-name="uni0126" unicode="&#x0126;" d="M205 336L205 0L129 0L129 534L20 534L20 576L129 576L129 700L205 700L205 576L622 576L622 700L698 700L698 576L807 576L807 534L698 534L698 0L622 0L622 336L205 336M205 534L205 382L622 382L622 534L205 534Z"  horiz-adv-x="827" vert-adv-y="1000"  />

      
      <glyph glyph-name="uni0127" unicode="&#x0127;" d="M-4 594L-4 636L90 636L90 750L154 750L163 727L163 636L328 636L328 594L163 594L163 434Q232 486 329 486Q420 486 469 436Q518 386 518 301L518 0L445 0L445 289Q445 357 406.50 396Q368 435 299 435Q223 435 163 393L163 0L90 0L90 594L-4 594Z"  horiz-adv-x="604" vert-adv-y="1000"  />

      
      <glyph glyph-name="uni0128" unicode="&#x0128;" d="M101 0L101 700L177 700L177 0L101 0M16 781L-5 801Q-4 804-1.50 808.50Q1 813 9 824.50Q17 836 26.50 845Q36 854 52.50 861Q69 868 87 868Q115 868 149.50 846.50Q184 825 204 825Q222 825 237 835.50Q252 846 258 856L263 866L284 845Q283 842 280.50 837.50Q278 833 269.50 821.50Q261 810 251.50 801Q242 792 225.50 785Q209 778 191 778Q163 778 128 799.50Q93 821 73 821Q55 821 40.50 811Q26 801 21 791L16 781Z"  horiz-adv-x="279" vert-adv-y="1000"  />

      
      <glyph glyph-name="uni0129" unicode="&#x0129;" d="M3 584L-18 605Q-17 608-14.50 612.50Q-12 617-4 628.50Q4 640 13.50 649Q23 658 39.50 665Q56 672 74 672Q102 672 136 650.50Q170 629 190 629Q209 629 224 639Q239 649 244 659L250 669L271 649Q270 646 267.50 641.50Q265 637 256.50 625.50Q248 614 238.50 605Q229 596 212.50 589Q196 582 178 582Q150 582 115 603.50Q80 625 60 625Q42 625 27.50 614.50Q13 604 8 594L3 584M90 0L90 480L154 480L163 457L163 0L90 0Z"  horiz-adv-x="252" vert-adv-y="1000"  />

      
      <glyph glyph-name="uni012A" unicode="&#x012A;" d="M101 0L101 700L177 700L177 0L101 0M26 807L26 852L255 852L255 807L26 807Z"  horiz-adv-x="279" vert-adv-y="1000"  />

      
      <glyph glyph-name="uni012B" unicode="&#x012B;" d="M12 604L12 649L240 649L240 604L12 604M90 0L90 480L154 480L163 457L163 0L90 0Z"  horiz-adv-x="252" vert-adv-y="1000"  />

      
      <glyph glyph-name="uni012C" unicode="&#x012C;" d="M101 0L101 700L177 700L177 0L101 0M221 892L275 892Q275 841 234 805.50Q193 770 134 770Q77 770 40.50 804Q4 838 4 892L61 892Q61 860 85 837Q109 814 143 814Q177 814 199 836Q221 858 221 892Z"  horiz-adv-x="279" vert-adv-y="1000"  />

      
      <glyph glyph-name="uni012D" unicode="&#x012D;" d="M208 695L262 695Q262 644 221 608.50Q180 573 121 573Q64 573 27 607Q-10 641-10 695L48 695Q48 663 72 640.50Q96 618 130 618Q164 618 186 639.50Q208 661 208 695M90 0L90 480L154 480L163 457L163 0L90 0Z"  horiz-adv-x="252" vert-adv-y="1000"  />

      
      <glyph glyph-name="uni012E" unicode="&#x012E;" d="M101 0L101 700L177 700L177 0L161 0Q155-6 145-16Q135-26 119-53.50Q103-81 103-104Q103-125 114.50-136Q126-147 145-147Q160-147 173.50-140.50Q187-134 193-127L199-120L217-138Q213-143 206.50-150.50Q200-158 176.50-170Q153-182 128-182Q96-182 76.50-163.50Q57-145 57-113Q57-102 59.50-90.50Q62-79 66.50-70Q71-61 77-52Q83-43 89.50-36.50Q96-30 102.50-24Q109-18 114.50-13.50Q120-9 124.50-6Q129-3 131-2L133 0L101 0Z"  horiz-adv-x="279" vert-adv-y="1000"  />

      
      <glyph glyph-name="uni012F" unicode="&#x012F;" d="M90 0L90 480L154 480L163 457L163 0L148 0Q141-6 131.50-16Q122-26 105.50-53.50Q89-81 89-104Q89-124 101-135.50Q113-147 132-147Q147-147 160.50-140.50Q174-134 180-127L186-120L203-138Q199-143 192.50-150.50Q186-158 163-170Q140-182 115-182Q83-182 63.50-163.50Q44-145 44-113Q44-102 46.50-90.50Q49-79 53.50-70Q58-61 64-52Q70-43 76.50-36.50Q83-30 89.50-24Q96-18 101.50-13.50Q107-9 111.50-6Q116-3 118-2L120 0L90 0M94 615.50Q94 615.50 87.50 622.25Q81 629 81 648Q81 667 94 680Q107 693 126 693Q145 693 158.50 680Q172 667 172 648Q172 628 159 615Q146 602 126 602Q107 602 94 615.50Z"  horiz-adv-x="252" vert-adv-y="1000"  />

      
      <glyph glyph-name="uni0130" unicode="&#x0130;" d="M101 0L101 700L177 700L177 0L101 0M96 874Q96 892 108.50 904.50Q121 917 139 917Q156 917 168.50 904.50Q181 892 181 874Q181 857 168.50 844.50Q156 832 139 832Q121 832 108.50 844.50Q96 857 96 874Z"  horiz-adv-x="279" vert-adv-y="1000"  />

      
      <glyph glyph-name="uni0131" unicode="&#x0131;" d="M90 0L90 480L154 480L163 457L163 0L90 0Z"  horiz-adv-x="252" vert-adv-y="1000"  />

      
      </font>
</defs>
</svg>
