<svg width="30" height="30" viewBox="0 0 30 30" fill="none" xmlns="http://www.w3.org/2000/svg">
<circle cx="15" cy="15" r="14" stroke="#4F6555" stroke-width="2"/>
<path d="M23 15C23 18.9921 22.0271 22.5578 20.5065 25.0921C18.9739 27.6464 16.996 29 15 29C13.004 29 11.0261 27.6464 9.49353 25.0921C7.97293 22.5578 7 18.9921 7 15C7 11.0079 7.97293 7.44223 9.49353 4.90789C11.0261 2.35365 13.004 1 15 1C16.996 1 18.9739 2.35365 20.5065 4.90789C22.0271 7.44223 23 11.0079 23 15Z" stroke="#4F6555" stroke-width="2"/>
<line x1="29" y1="15" x2="1" y2="15" stroke="#4F6555" stroke-width="2"/>
<line x1="15" y1="28" x2="15" y2="-1.19249e-08" stroke="#4F6555" stroke-width="2"/>
</svg>
