<svg width="27" height="27" viewBox="0 0 27 27" fill="none" xmlns="http://www.w3.org/2000/svg">
<path fill-rule="evenodd" clip-rule="evenodd" d="M19.6862 16.1798C19.3493 16.0121 17.6978 15.2044 17.3903 15.0919C17.0828 14.9805 16.859 14.9254 16.634 15.2606C16.4102 15.5936 15.767 16.3474 15.5715 16.5701C15.3748 16.794 15.1792 16.821 14.8435 16.6545C14.5077 16.4858 13.4248 16.1336 12.1418 14.9951C11.1436 14.1086 10.4688 13.014 10.2732 12.6788C10.0776 12.3447 10.2517 12.1635 10.4202 11.997C10.5716 11.8474 10.7559 11.6067 10.9243 11.412C11.0928 11.2163 11.1481 11.0768 11.2601 10.8529C11.3731 10.6302 11.3166 10.4355 11.2318 10.2679C11.1481 10.1003 10.4767 8.45441 10.1963 7.78503C9.9239 7.13366 9.64695 7.22253 9.44122 7.21128C9.24453 7.20228 9.0207 7.20003 8.79688 7.20003C8.57306 7.20003 8.20907 7.28328 7.90159 7.61853C7.59299 7.95266 6.72596 8.76153 6.72596 10.4074C6.72596 12.0522 7.92872 13.6418 8.09715 13.8656C8.26559 14.0884 10.4654 17.4656 13.8351 18.9135C14.6377 19.2578 15.2628 19.4636 15.7501 19.6166C16.5549 19.872 17.2874 19.836 17.8662 19.7494C18.5105 19.6538 19.8535 18.9405 20.1338 18.1598C20.413 17.379 20.413 16.7096 20.3294 16.5701C20.2457 16.4306 20.0219 16.3474 19.685 16.1798H19.6862ZM13.5571 24.5081H13.5525C11.5511 24.5085 9.58633 23.973 7.86429 22.9579L7.45734 22.7171L3.22733 23.8219L4.35662 19.7179L4.09097 19.2971C2.97201 17.5245 2.37985 15.473 2.38291 13.3796C2.38517 7.24841 7.39743 2.26017 13.5616 2.26017C16.5459 2.26017 19.3516 3.41892 21.4609 5.52041C22.5013 6.55156 23.3259 7.77779 23.8871 9.12817C24.4482 10.4785 24.7347 11.9262 24.7301 13.3875C24.7278 19.5188 19.7155 24.5081 13.5571 24.5081ZM23.0661 3.92404C21.8206 2.67633 20.3387 1.68702 18.7062 1.01344C17.0737 0.339867 15.3231 -0.00458577 13.5559 4.60997e-05C6.14719 4.60997e-05 0.115302 6.00191 0.113041 13.3785C0.109608 15.7261 0.72841 18.0331 1.90701 20.0666L0 27L7.12613 25.1393C9.09743 26.2081 11.3065 26.7682 13.5514 26.7682H13.5571C20.9658 26.7682 26.9977 20.7664 26.9999 13.3886C27.0054 11.6306 26.6605 9.88889 25.9853 8.26432C25.3101 6.63975 24.3179 5.16454 23.0661 3.92404Z" fill="#4F6555"/>
</svg>
