<svg width="27" height="27" fill="none" xmlns="http://www.w3.org/2000/svg"><path fill-rule="evenodd" clip-rule="evenodd" d="M19.686 16.18c-.337-.168-1.988-.976-2.296-1.088-.307-.112-.531-.167-.756.169-.224.333-.867 1.086-1.063 1.31-.196.223-.392.25-.727.083-.336-.168-1.42-.52-2.702-1.659-.998-.886-1.673-1.981-1.869-2.316-.195-.334-.021-.515.147-.682.152-.15.336-.39.504-.585.169-.196.224-.335.336-.56.113-.222.057-.417-.028-.584-.084-.168-.755-1.814-1.036-2.483-.272-.651-.549-.562-.755-.574-.196-.009-.42-.011-.644-.011a1.23 1.23 0 00-.895.419c-.309.334-1.176 1.143-1.176 2.788 0 1.645 1.203 3.235 1.371 3.459.169.222 2.368 3.6 5.738 5.047.803.345 1.428.55 1.915.704.805.255 1.537.219 2.116.132.645-.095 1.988-.808 2.268-1.59.279-.78.279-1.45.195-1.589-.083-.14-.307-.223-.644-.39h.001zm-6.129 8.328h-.005c-2 0-3.966-.535-5.688-1.55l-.407-.24-4.23 1.104 1.13-4.104-.266-.42a11.054 11.054 0 01-1.708-5.918C2.385 7.248 7.397 2.26 13.562 2.26a11.12 11.12 0 017.899 3.26 11.05 11.05 0 012.426 3.608c.561 1.35.848 2.798.843 4.26-.002 6.13-5.015 11.12-11.173 11.12zm9.51-20.584a13.36 13.36 0 00-4.36-2.91A13.412 13.412 0 0013.555 0C6.147 0 .116 6.002.113 13.379a13.297 13.297 0 001.794 6.688L0 27l7.126-1.86a13.482 13.482 0 006.425 1.628h.006c7.409 0 13.44-6.002 13.443-13.38.005-1.757-.34-3.5-1.015-5.124a13.294 13.294 0 00-2.919-4.34z" fill="#4F6555"/></svg>